SolideMirageEtroit.ufo
<glyph name="exclam" format="1">
  <advance width="249"/>
  <unicode hex="0021"/>
  <outline>
    <contour>
      <point x="111" y="215" type="line"/>
      <point x="101" y="750" type="line"/>
      <point x="148" y="750" type="line"/>
      <point x="138" y="215" type="line"/>
    </contour>
    <contour>
      <point x="111" y="-50" type="line"/>
      <point x="111" y="169" type="line"/>
      <point x="138" y="169" type="line"/>
      <point x="138" y="-50" type="line"/>
    </contour>
  </outline>
</glyph>
<glyph name="dollar" format="1">
  <advance width="726"/>
  <unicode hex="0024"/>
  <outline>
    <contour>
      <point x="295" y="-87" type="line"/>
      <point x="322" y="-87" type="line"/>
      <point x="322" y="840" type="line"/>
      <point x="295" y="840" type="line"/>
    </contour>
    <contour>
      <point x="388" y="-87" type="line"/>
      <point x="415" y="-87" type="line"/>
      <point x="415" y="840" type="line"/>
      <point x="388" y="840" type="line"/>
    </contour>
    <component base="S"/>
  </outline>
</glyph>
<glyph name="percent" format="1">
  <advance width="930"/>
  <unicode hex="0025"/>
  <outline>
    <contour>
      <point x="263" y="0" type="line"/>
      <point x="698" y="750" type="line"/>
      <point x="667" y="750" type="line"/>
      <point x="232" y="0" type="line" smooth="yes"/>
    </contour>
    <contour>
      <point x="689" y="356" type="curve" smooth="yes"/>
      <point x="564" y="356"/>
      <point x="502" y="285"/>
      <point x="502" y="158" type="curve" smooth="yes"/>
      <point x="502" y="42"/>
      <point x="567" y="-20"/>
      <point x="689" y="-20" type="curve" smooth="yes"/>
      <point x="812" y="-20"/>
      <point x="878" y="42"/>
      <point x="878" y="158" type="curve" smooth="yes"/>
      <point x="878" y="285"/>
      <point x="815" y="356"/>
    </contour>
    <contour>
      <point x="689" y="329" type="curve" smooth="yes"/>
      <point x="802" y="329"/>
      <point x="851" y="276"/>
      <point x="851" y="157" type="curve" smooth="yes"/>
      <point x="851" y="52"/>
      <point x="799" y="7"/>
      <point x="689" y="7" type="curve" smooth="yes"/>
      <point x="579" y="7"/>
      <point x="529" y="52"/>
      <point x="529" y="157" type="curve" smooth="yes"/>
      <point x="529" y="276"/>
      <point x="576" y="329"/>
    </contour>
    <contour>
      <point x="239" y="771" type="curve" smooth="yes"/>
      <point x="114" y="771"/>
      <point x="52" y="700"/>
      <point x="52" y="573" type="curve" smooth="yes"/>
      <point x="52" y="457"/>
      <point x="117" y="395"/>
      <point x="239" y="395" type="curve" smooth="yes"/>
      <point x="362" y="395"/>
      <point x="428" y="457"/>
      <point x="428" y="573" type="curve" smooth="yes"/>
      <point x="428" y="700"/>
      <point x="365" y="771"/>
    </contour>
    <contour>
      <point x="239" y="744" type="curve" smooth="yes"/>
      <point x="352" y="744"/>
      <point x="401" y="691"/>
      <point x="401" y="572" type="curve" smooth="yes"/>
      <point x="401" y="467"/>
      <point x="349" y="422"/>
      <point x="239" y="422" type="curve" smooth="yes"/>
      <point x="129" y="422"/>
      <point x="79" y="467"/>
      <point x="79" y="572" type="curve" smooth="yes"/>
      <point x="79" y="691"/>
      <point x="126" y="744"/>
    </contour>
  </outline>
</glyph>
<glyph name="ampersand" format="1">
  <advance width="930"/>
  <unicode hex="0026"/>
  <outline>
    <contour>
      <point x="627" y="210" type="line" smooth="yes"/>
      <point x="727" y="97"/>
      <point x="765" y="62"/>
      <point x="796" y="62" type="curve" smooth="yes"/>
      <point x="827" y="62"/>
      <point x="838" y="88"/>
      <point x="838" y="127" type="curve" smooth="yes"/>
      <point x="838" y="263" type="line"/>
      <point x="865" y="263" type="line"/>
      <point x="865" y="127" type="line" smooth="yes"/>
      <point x="865" y="23"/>
      <point x="828" y="-20"/>
      <point x="749" y="-20" type="curve" smooth="yes"/>
      <point x="691" y="-20"/>
      <point x="634" y="13"/>
      <point x="513" y="148" type="curve" smooth="yes"/>
      <point x="281" y="407" type="line" smooth="yes"/>
      <point x="223" y="471"/>
      <point x="202" y="541"/>
      <point x="202" y="597" type="curve" smooth="yes"/>
      <point x="203" y="697"/>
      <point x="283" y="770"/>
      <point x="422" y="770" type="curve" smooth="yes"/>
      <point x="552" y="770"/>
      <point x="639" y="713"/>
      <point x="639" y="605" type="curve" smooth="yes"/>
      <point x="639" y="515"/>
      <point x="575" y="441"/>
      <point x="485" y="437" type="curve"/>
      <point x="480" y="462" type="line"/>
      <point x="565" y="468"/>
      <point x="612" y="531"/>
      <point x="612" y="605" type="curve" smooth="yes"/>
      <point x="612" y="702"/>
      <point x="534" y="743"/>
      <point x="427" y="743" type="curve" smooth="yes"/>
      <point x="358" y="743"/>
      <point x="298" y="721"/>
      <point x="298" y="651" type="curve" smooth="yes"/>
      <point x="298" y="611"/>
      <point x="319" y="555"/>
      <point x="390" y="476" type="curve" smooth="yes"/>
    </contour>
    <contour>
      <point x="480" y="462" type="line"/>
      <point x="805" y="462" type="line"/>
      <point x="805" y="435" type="line"/>
      <point x="480" y="435" type="line"/>
    </contour>
    <contour>
      <point x="602" y="198" type="curve" smooth="yes"/>
      <point x="597" y="186" type="line"/>
      <point x="576" y="206" type="line"/>
      <point x="579" y="212" type="line" smooth="yes"/>
      <point x="610" y="281"/>
      <point x="615" y="368"/>
      <point x="615" y="445" type="curve" smooth="yes"/>
      <point x="615" y="452" type="line"/>
      <point x="641" y="455" type="line"/>
      <point x="641" y="445" type="line" smooth="yes"/>
      <point x="641" y="369"/>
      <point x="637" y="276"/>
    </contour>
    <contour>
      <point x="311" y="386" type="curve" smooth="yes"/>
      <point x="319" y="389" type="line"/>
      <point x="330" y="366" type="line"/>
      <point x="322" y="363" type="line" smooth="yes"/>
      <point x="240" y="332"/>
      <point x="217" y="296"/>
      <point x="217" y="176" type="curve" smooth="yes"/>
      <point x="217" y="59"/>
      <point x="257" y="16"/>
      <point x="326" y="16" type="curve" smooth="yes"/>
      <point x="416" y="16"/>
      <point x="479" y="53"/>
      <point x="545" y="141" type="curve" smooth="yes"/>
      <point x="551" y="149" type="line"/>
      <point x="568" y="134" type="line"/>
      <point x="564" y="127" type="line" smooth="yes"/>
      <point x="512" y="36"/>
      <point x="410" y="-20"/>
      <point x="286" y="-20" type="curve" smooth="yes"/>
      <point x="158" y="-20"/>
      <point x="77" y="74"/>
      <point x="77" y="155" type="curve" smooth="yes"/>
      <point x="77" y="272"/>
      <point x="197" y="343"/>
    </contour>
  </outline>
</glyph>
<glyph name="parenleft" format="1">
  <advance width="465"/>
  <unicode hex="0028"/>
  <outline>
    <contour>
      <point x="444" y="-53" type="line"/>
      <point x="222" y="-53"/>
      <point x="99" y="82"/>
      <point x="99" y="367" type="curve" smooth="yes"/>
      <point x="99" y="662"/>
      <point x="215" y="803"/>
      <point x="444" y="803" type="curve"/>
      <point x="444" y="830" type="line"/>
      <point x="196" y="830"/>
      <point x="70" y="666"/>
      <point x="70" y="368" type="curve" smooth="yes"/>
      <point x="70" y="78"/>
      <point x="199" y="-80"/>
      <point x="444" y="-80" type="curve"/>
    </contour>
    <contour>
      <point x="444.0" y="750.0" type="move" name="top"/>
    </contour>
  </outline>
</glyph>
<glyph name="hyphen" format="1">
  <advance width="465"/>
  <unicode hex="002D"/>
  <outline>
    <contour>
      <point x="395" y="398" type="line"/>
      <point x="70" y="398" type="line"/>
      <point x="70" y="425" type="line"/>
      <point x="395" y="425" type="line"/>
    </contour>
  </outline>
</glyph>
<glyph name="period" format="1">
  <advance width="464"/>
  <unicode hex="002E"/>
  <outline>
    <contour>
      <point x="231" y="230" type="curve" smooth="yes"/>
      <point x="148" y="230"/>
      <point x="107" y="183"/>
      <point x="107" y="98" type="curve" smooth="yes"/>
      <point x="107" y="21"/>
      <point x="150" y="-20"/>
      <point x="231" y="-20" type="curve" smooth="yes"/>
      <point x="313" y="-20"/>
      <point x="357" y="21"/>
      <point x="357" y="98" type="curve" smooth="yes"/>
      <point x="357" y="183"/>
      <point x="315" y="230"/>
    </contour>
    <contour>
      <point x="231" y="203" type="curve" smooth="yes"/>
      <point x="300" y="203"/>
      <point x="330" y="171"/>
      <point x="330" y="97" type="curve" smooth="yes"/>
      <point x="330" y="35"/>
      <point x="298" y="7"/>
      <point x="231" y="7" type="curve" smooth="yes"/>
      <point x="165" y="7"/>
      <point x="134" y="35"/>
      <point x="134" y="97" type="curve" smooth="yes"/>
      <point x="134" y="171"/>
      <point x="163" y="203"/>
    </contour>
  </outline>
</glyph>
<glyph name="slash" format="1">
  <advance width="366"/>
  <unicode hex="002F"/>
  <outline>
    <contour>
      <point x="81" y="0" type="line"/>
      <point x="316" y="750" type="line"/>
      <point x="285" y="750" type="line"/>
      <point x="50" y="0" type="line" smooth="yes"/>
    </contour>
  </outline>
</glyph>
<glyph name="one" format="1">
  <advance width="530"/>
  <unicode hex="0031"/>
  <outline>
    <contour>
      <point x="329" y="0" type="line"/>
      <point x="201" y="0" type="line"/>
      <point x="201" y="534" type="line"/>
      <point x="254" y="616" type="line"/>
      <point x="273" y="710" type="line"/>
      <point x="281" y="770" type="line"/>
      <point x="329" y="770" type="line"/>
    </contour>
    <contour>
      <point x="440" y="25" type="line"/>
      <point x="440" y="0" type="line"/>
      <point x="309" y="0" type="line"/>
      <point x="309" y="25" type="line"/>
    </contour>
    <contour>
      <point x="225" y="0" type="line"/>
      <point x="90" y="0" type="line"/>
      <point x="90" y="25" type="line"/>
      <point x="225" y="25" type="line"/>
    </contour>
    <contour>
      <point x="294" y="770" type="line"/>
      <point x="264" y="559"/>
      <point x="208" y="488"/>
      <point x="106" y="488" type="curve"/>
      <point x="106" y="515" type="line"/>
      <point x="192" y="515"/>
      <point x="244" y="576"/>
      <point x="276" y="770" type="curve"/>
    </contour>
  </outline>
</glyph>
<glyph name="two" format="1">
  <advance width="830"/>
  <unicode hex="0032"/>
  <outline>
    <contour>
      <point x="165" y="750" type="line"/>
      <point x="165" y="397" type="line"/>
      <point x="140" y="397" type="line"/>
      <point x="140" y="750" type="line"/>
    </contour>
    <contour>
      <point x="110" y="0" type="line"/>
      <point x="126" y="189"/>
      <point x="197" y="225"/>
      <point x="310" y="293" type="curve" smooth="yes"/>
      <point x="488" y="399"/>
      <point x="546" y="452"/>
      <point x="546" y="576" type="curve" smooth="yes"/>
      <point x="546" y="698"/>
      <point x="490" y="744"/>
      <point x="373" y="743" type="curve" smooth="yes"/>
      <point x="250" y="741"/>
      <point x="170" y="644"/>
      <point x="170" y="429" type="curve"/>
      <point x="170" y="397" type="line"/>
      <point x="142" y="397" type="line"/>
      <point x="142" y="434" type="line" smooth="yes"/>
      <point x="142" y="647"/>
      <point x="224" y="770"/>
      <point x="389" y="770" type="curve" smooth="yes"/>
      <point x="568" y="770"/>
      <point x="686" y="709"/>
      <point x="686" y="572" type="curve" smooth="yes"/>
      <point x="686" y="365"/>
      <point x="501" y="368"/>
      <point x="323" y="269" type="curve" smooth="yes"/>
      <point x="205" y="203"/>
      <point x="154" y="172"/>
      <point x="139" y="0" type="curve"/>
    </contour>
    <contour>
      <point x="156" y="102" type="curve"/>
      <point x="168" y="168" type="line"/>
      <point x="168" y="168"/>
      <point x="198" y="188"/>
      <point x="207" y="193" type="curve"/>
      <point x="235" y="216"/>
      <point x="279" y="230"/>
      <point x="332" y="230" type="curve" smooth="yes"/>
      <point x="415" y="230"/>
      <point x="542" y="80"/>
      <point x="611" y="80" type="curve" smooth="yes"/>
      <point x="669" y="80"/>
      <point x="697" y="122"/>
      <point x="697" y="228" type="curve" smooth="yes"/>
      <point x="697" y="347" type="line"/>
      <point x="723" y="347" type="line"/>
      <point x="723" y="232" type="line" smooth="yes"/>
      <point x="723" y="81"/>
      <point x="676" y="-20"/>
      <point x="558" y="-20" type="curve" smooth="yes"/>
      <point x="444" y="-20"/>
      <point x="270" y="166"/>
      <point x="218" y="166" type="curve" smooth="yes"/>
      <point x="190" y="166"/>
      <point x="173" y="149"/>
    </contour>
  </outline>
</glyph>
<glyph name="three" format="1">
  <advance width="830"/>
  <unicode hex="0033"/>
  <outline>
    <contour>
      <point x="694" y="727" type="line"/>
      <point x="224" y="355" type="line" smooth="yes"/>
      <point x="210" y="374" type="line"/>
      <point x="645" y="724" type="line"/>
    </contour>
    <contour>
      <point x="560" y="239" type="curve" smooth="yes"/>
      <point x="560" y="422"/>
      <point x="535" y="475"/>
      <point x="450" y="475" type="curve" smooth="yes"/>
      <point x="380" y="475"/>
      <point x="347" y="453"/>
      <point x="263" y="386" type="curve"/>
      <point x="253" y="403" type="line"/>
      <point x="324" y="459"/>
      <point x="385" y="500"/>
      <point x="453" y="501" type="curve" smooth="yes"/>
      <point x="591" y="503"/>
      <point x="700" y="410"/>
      <point x="700" y="255" type="curve" smooth="yes"/>
      <point x="700" y="77"/>
      <point x="587" y="-20"/>
      <point x="403" y="-20" type="curve" smooth="yes"/>
      <point x="196" y="-20"/>
      <point x="132" y="86"/>
      <point x="132" y="264" type="curve"/>
      <point x="159" y="264" type="line"/>
      <point x="159" y="113"/>
      <point x="203" y="8"/>
      <point x="384" y="8" type="curve" smooth="yes"/>
      <point x="503" y="8"/>
      <point x="560" y="86"/>
    </contour>
    <contour>
      <point x="144" y="412" type="line"/>
      <point x="144" y="750" type="line"/>
      <point x="694" y="750" type="line"/>
      <point x="694" y="727" type="line"/>
      <point x="536" y="633" type="line" smooth="yes"/>
      <point x="233" y="633" type="line" smooth="yes"/>
      <point x="189" y="633"/>
      <point x="169" y="612"/>
      <point x="169" y="557" type="curve" smooth="yes"/>
      <point x="169" y="412" type="line"/>
    </contour>
  </outline>
</glyph>
<glyph name="four" format="1">
  <advance width="724"/>
  <unicode hex="0034"/>
  <outline>
    <contour>
      <point x="597" y="723" type="line"/>
      <point x="210" y="237" type="line"/>
      <point x="60" y="237" type="line"/>
      <point x="457" y="750" type="line"/>
      <point x="597" y="750" type="line"/>
    </contour>
    <contour>
      <point x="644" y="210" type="line"/>
      <point x="60" y="210" type="line"/>
      <point x="60" y="237" type="line"/>
      <point x="644" y="237" type="line"/>
    </contour>
    <contour>
      <point x="509" y="3" type="line"/>
      <point x="381" y="3" type="line"/>
      <point x="381" y="270" type="line"/>
      <point x="490" y="388" type="line"/>
      <point x="509" y="388" type="line"/>
    </contour>
    <contour>
      <point x="247" y="0" type="line"/>
      <point x="247" y="25" type="line"/>
      <point x="643" y="25" type="line"/>
      <point x="643" y="0" type="line"/>
    </contour>
  </outline>
</glyph>
<glyph name="five" format="1">
  <advance width="830"/>
  <unicode hex="0035"/>
  <outline>
    <contour>
      <point x="140" y="311" type="line"/>
      <point x="167" y="311" type="line"/>
      <point x="197" y="740" type="line"/>
      <point x="170" y="740" type="line"/>
    </contour>
    <contour>
      <point x="147" y="261" type="curve"/>
      <point x="120" y="261" type="line"/>
      <point x="120" y="78"/>
      <point x="221" y="-20"/>
      <point x="394" y="-20" type="curve" smooth="yes"/>
      <point x="609" y="-20"/>
      <point x="710" y="77"/>
      <point x="710" y="258" type="curve" smooth="yes"/>
      <point x="710" y="440"/>
      <point x="614" y="540"/>
      <point x="400" y="540" type="curve" smooth="yes"/>
      <point x="230" y="540"/>
      <point x="151" y="456"/>
      <point x="140" y="311" type="curve"/>
      <point x="167" y="311" type="line"/>
      <point x="178" y="441"/>
      <point x="242" y="513"/>
      <point x="399" y="513" type="curve" smooth="yes"/>
      <point x="524" y="513"/>
      <point x="570" y="436"/>
      <point x="570" y="257" type="curve" smooth="yes"/>
      <point x="570" y="85"/>
      <point x="522" y="7"/>
      <point x="394" y="7" type="curve" smooth="yes"/>
      <point x="240" y="7"/>
      <point x="147" y="87"/>
    </contour>
    <contour>
      <point x="644" y="515" type="line"/>
      <point x="644" y="750" type="line"/>
      <point x="170" y="750" type="line"/>
      <point x="170" y="727" type="line"/>
      <point x="189" y="633" type="line"/>
      <point x="555" y="633" type="line" smooth="yes"/>
      <point x="599" y="633"/>
      <point x="619" y="612"/>
      <point x="619" y="557" type="curve" smooth="yes"/>
      <point x="619" y="515" type="line"/>
    </contour>
  </outline>
</glyph>
<glyph name="six" format="1">
  <advance width="830"/>
  <unicode hex="0036"/>
  <outline>
    <contour>
      <point x="439" y="7" type="curve" smooth="yes"/>
      <point x="304" y="7"/>
      <point x="274" y="108"/>
      <point x="274" y="242" type="curve" smooth="yes"/>
      <point x="274" y="257" type="line" smooth="yes"/>
      <point x="274" y="405"/>
      <point x="348" y="444"/>
      <point x="440" y="444" type="curve" smooth="yes"/>
      <point x="550" y="444"/>
      <point x="575" y="405"/>
      <point x="575" y="229" type="curve" smooth="yes"/>
      <point x="575" y="56"/>
      <point x="545" y="7"/>
    </contour>
    <contour>
      <point x="116" y="382" type="curve" smooth="yes"/>
      <point x="116" y="58"/>
      <point x="280" y="-20"/>
      <point x="438" y="-20" type="curve" smooth="yes"/>
      <point x="624" y="-20"/>
      <point x="715" y="68"/>
      <point x="715" y="226" type="curve" smooth="yes"/>
      <point x="715" y="384"/>
      <point x="624" y="471"/>
      <point x="438" y="471" type="curve" smooth="yes"/>
      <point x="325" y="471"/>
      <point x="284" y="403"/>
      <point x="274" y="373" type="curve"/>
      <point x="274" y="407" type="line" smooth="yes"/>
      <point x="274" y="642"/>
      <point x="318" y="743"/>
      <point x="441" y="743" type="curve" smooth="yes"/>
      <point x="577" y="743"/>
      <point x="643" y="656"/>
      <point x="643" y="501" type="curve"/>
      <point x="670" y="501" type="line"/>
      <point x="670" y="671"/>
      <point x="590" y="770"/>
      <point x="440" y="770" type="curve" smooth="yes"/>
      <point x="216" y="770"/>
      <point x="116" y="664"/>
    </contour>
  </outline>
</glyph>
<glyph name="seven" format="1">
  <advance width="732"/>
  <unicode hex="0037"/>
  <outline>
    <contour>
      <point x="682" y="728" type="line"/>
      <point x="605" y="623" type="line" smooth="yes"/>
      <point x="413" y="361"/>
      <point x="388" y="254"/>
      <point x="388" y="77" type="curve" smooth="yes"/>
      <point x="388" y="7" type="line"/>
      <point x="260" y="5" type="line"/>
      <point x="260" y="77" type="line" smooth="yes"/>
      <point x="260" y="258.9636363636364"/>
      <point x="358" y="369"/>
      <point x="582" y="633" type="curve"/>
    </contour>
    <contour>
      <point x="500" y="0" type="line"/>
      <point x="158" y="0" type="line"/>
      <point x="158" y="25" type="line"/>
      <point x="500" y="25" type="line"/>
    </contour>
    <contour>
      <point x="100" y="352" type="line"/>
      <point x="100" y="750" type="line"/>
      <point x="682" y="750" type="line"/>
      <point x="682" y="728" type="line"/>
      <point x="605" y="633" type="line" smooth="yes"/>
      <point x="253" y="633" type="line" smooth="yes"/>
      <point x="159" y="633"/>
      <point x="125" y="597"/>
      <point x="125" y="511" type="curve" smooth="yes"/>
      <point x="125" y="352" type="line"/>
    </contour>
  </outline>
</glyph>
<glyph name="eight" format="1">
  <advance width="830"/>
  <unicode hex="0038"/>
  <outline>
    <contour>
      <point x="677" y="569" type="curve" smooth="yes"/>
      <point x="677" y="709"/>
      <point x="551" y="770"/>
      <point x="410" y="770" type="curve" smooth="yes"/>
      <point x="276" y="770"/>
      <point x="128" y="701"/>
      <point x="128" y="569" type="curve" smooth="yes"/>
      <point x="128" y="446"/>
      <point x="194" y="373"/>
      <point x="376" y="321" type="curve" smooth="yes"/>
      <point x="561" y="267"/>
      <point x="594" y="231"/>
      <point x="594" y="132" type="curve"/>
      <point x="594" y="54"/>
      <point x="548" y="7"/>
      <point x="418" y="7" type="curve" smooth="yes"/>
      <point x="265" y="7"/>
      <point x="147" y="62"/>
      <point x="147" y="199" type="curve" smooth="yes"/>
      <point x="147" y="302"/>
      <point x="219" y="338"/>
      <point x="317" y="351" type="curve"/>
      <point x="294" y="370" type="line"/>
      <point x="195" y="357"/>
      <point x="119" y="307"/>
      <point x="119" y="195" type="curve" smooth="yes"/>
      <point x="119" y="52"/>
      <point x="245" y="-20"/>
      <point x="422" y="-20" type="curve" smooth="yes"/>
      <point x="586" y="-20"/>
      <point x="724" y="46"/>
      <point x="724" y="180" type="curve" smooth="yes"/>
      <point x="724" y="288"/>
      <point x="676" y="370"/>
      <point x="444" y="435" type="curve" smooth="yes"/>
      <point x="282" y="480"/>
      <point x="254" y="515"/>
      <point x="254" y="610" type="curve" smooth="yes"/>
      <point x="254" y="707"/>
      <point x="310" y="743"/>
      <point x="425" y="743" type="curve" smooth="yes"/>
      <point x="541" y="743"/>
      <point x="650" y="678"/>
      <point x="650" y="569" type="curve" smooth="yes"/>
      <point x="650" y="459"/>
      <point x="599" y="423"/>
      <point x="470" y="409" type="curve"/>
      <point x="490" y="391" type="line"/>
      <point x="598" y="402"/>
      <point x="677" y="437"/>
    </contour>
  </outline>
</glyph>
<glyph name="nine" format="1">
  <advance width="830"/>
  <unicode hex="0039"/>
  <outline>
    <contour>
      <point x="397" y="743" type="curve"/>
      <point x="528" y="743"/>
      <point x="557" y="642"/>
      <point x="557" y="508" type="curve" smooth="yes"/>
      <point x="557" y="493" type="line" smooth="yes"/>
      <point x="557" y="345"/>
      <point x="485" y="306"/>
      <point x="396" y="306" type="curve" smooth="yes"/>
      <point x="290" y="306"/>
      <point x="266" y="345"/>
      <point x="266" y="521" type="curve" smooth="yes"/>
      <point x="266" y="694"/>
      <point x="295" y="743"/>
    </contour>
    <contour>
      <point x="715" y="368" type="curve" smooth="yes"/>
      <point x="715" y="692"/>
      <point x="553" y="770"/>
      <point x="398" y="770" type="curve" smooth="yes"/>
      <point x="216" y="770"/>
      <point x="126" y="682"/>
      <point x="126" y="524" type="curve" smooth="yes"/>
      <point x="126" y="366"/>
      <point x="216" y="279"/>
      <point x="398" y="279" type="curve" smooth="yes"/>
      <point x="508" y="279"/>
      <point x="547" y="347"/>
      <point x="557" y="377" type="curve"/>
      <point x="557" y="343" type="line" smooth="yes"/>
      <point x="557" y="108"/>
      <point x="510" y="7"/>
      <point x="380" y="7" type="curve" smooth="yes"/>
      <point x="231" y="7"/>
      <point x="158" y="94"/>
      <point x="158" y="249" type="curve"/>
      <point x="131" y="249" type="line"/>
      <point x="131" y="79"/>
      <point x="218" y="-20"/>
      <point x="381" y="-20" type="curve" smooth="yes"/>
      <point x="611" y="-20"/>
      <point x="715" y="86"/>
    </contour>
  </outline>
</glyph>
<glyph name="semicolon" format="1">
  <advance width="465"/>
  <unicode hex="003B"/>
  <outline>
    <contour>
      <point x="343" y="243" type="line"/>
      <point x="197" y="-48" type="line"/>
      <point x="172" y="-36" type="line"/>
      <point x="325" y="267" type="line"/>
    </contour>
    <contour>
      <point x="343" y="243" type="line"/>
      <point x="136" y="243" type="line"/>
      <point x="136" y="270" type="line"/>
      <point x="343" y="270" type="line"/>
    </contour>
    <component base="period" yOffset="464"/>
  </outline>
</glyph>
<glyph name="question" format="1">
  <advance width="930"/>
  <unicode hex="003F"/>
  <outline>
    <contour>
      <point x="165" y="750" type="line"/>
      <point x="165" y="397" type="line"/>
      <point x="140" y="397" type="line"/>
      <point x="140" y="750" type="line"/>
    </contour>
    <contour>
      <point x="451" y="212" type="line"/>
      <point x="452" y="342"/>
      <point x="481" y="366"/>
      <point x="570" y="414" type="curve" smooth="yes"/>
      <point x="643" y="453"/>
      <point x="646" y="505"/>
      <point x="646" y="590" type="curve" smooth="yes"/>
      <point x="646" y="698"/>
      <point x="574" y="746"/>
      <point x="423" y="743" type="curve"/>
      <point x="270" y="743"/>
      <point x="170" y="644"/>
      <point x="170" y="429" type="curve"/>
      <point x="170" y="397" type="line"/>
      <point x="142" y="397" type="line"/>
      <point x="142" y="434" type="line" smooth="yes"/>
      <point x="142" y="647"/>
      <point x="240" y="770"/>
      <point x="439" y="770" type="curve"/>
      <point x="648" y="770"/>
      <point x="786" y="709"/>
      <point x="786" y="585" type="curve" smooth="yes"/>
      <point x="786" y="448"/>
      <point x="692" y="442"/>
      <point x="583" y="390" type="curve" smooth="yes"/>
      <point x="495" y="348"/>
      <point x="480" y="325"/>
      <point x="480" y="212" type="curve"/>
    </contour>
    <contour>
      <point x="451" y="-50" type="line"/>
      <point x="451" y="170" type="line"/>
      <point x="479" y="170" type="line"/>
      <point x="479" y="-50" type="line"/>
    </contour>
  </outline>
</glyph>
<glyph name="at" format="1">
  <advance width="930"/>
  <unicode hex="0040"/>
  <outline>
    <contour>
      <point x="451" y="147" type="curve" smooth="yes"/>
      <point x="368" y="147"/>
      <point x="345.0" y="196.33333333333334"/>
      <point x="345" y="369" type="curve" smooth="yes"/>
      <point x="345.0" y="545.3877551020408"/>
      <point x="364.32000000000005" y="584.0"/>
      <point x="450" y="584" type="curve" smooth="yes"/>
      <point x="528.9677419354839" y="584.0"/>
      <point x="594" y="549.0"/>
      <point x="594" y="417" type="curve" smooth="yes"/>
      <point x="594" y="352" type="line" smooth="yes"/>
      <point x="594" y="235.0"/>
      <point x="568" y="147"/>
    </contour>
    <contour>
      <point x="810" y="367" type="curve" smooth="yes"/>
      <point x="810.0" y="211.0"/>
      <point x="800.0" y="158.0"/>
      <point x="760" y="158" type="curve" smooth="yes"/>
      <point x="733.4883720930233" y="158.0"/>
      <point x="722" y="173.0"/>
      <point x="722" y="238" type="curve" smooth="yes"/>
      <point x="722" y="605" type="line"/>
      <point x="699" y="605" type="line"/>
      <point x="596" y="526" type="line"/>
      <point x="586.79574861252" y="553.6127541624401"/>
      <point x="539.0967741935483" y="611.0"/>
      <point x="452" y="611" type="curve" smooth="yes"/>
      <point x="286.40823970037457" y="611.0"/>
      <point x="205.0" y="523.690909090909"/>
      <point x="205" y="366" type="curve" smooth="yes"/>
      <point x="205.0" y="208.23913043478262"/>
      <point x="286.40823970037457" y="120.0"/>
      <point x="452" y="120" type="curve" smooth="yes"/>
      <point x="523.7637795275591" y="120.0"/>
      <point x="574.5339888190299" y="158.75730351741322"/>
      <point x="599" y="224" type="curve"/>
      <point x="596" y="223" type="line"/>
      <point x="596.0" y="136.4070796460177"/>
      <point x="647.1338028169014" y="120.0"/>
      <point x="733" y="120" type="curve" smooth="yes"/>
      <point x="819.059405940594" y="120.0"/>
      <point x="839.0" y="175.0"/>
      <point x="839" y="368" type="curve" smooth="yes"/>
      <point x="839" y="627"/>
      <point x="713.0" y="770.0"/>
      <point x="464.0" y="770.0" type="curve" smooth="yes"/>
      <point x="216.0" y="770.0"/>
      <point x="90.0" y="627.0"/>
      <point x="90.0" y="368.0" type="curve" smooth="yes"/>
      <point x="90.0" y="117.0"/>
      <point x="219.00000000000003" y="-20.0"/>
      <point x="464" y="-20" type="curve" smooth="yes"/>
      <point x="543" y="-20"/>
      <point x="610" y="-6"/>
      <point x="664" y="22" type="curve"/>
      <point x="652" y="48" type="line"/>
      <point x="601" y="22"/>
      <point x="538.1837837837838" y="9.0"/>
      <point x="464" y="9" type="curve" smooth="yes"/>
      <point x="242.00000000000003" y="9.0"/>
      <point x="119.0" y="124.0"/>
      <point x="119.0" y="367.0" type="curve" smooth="yes"/>
      <point x="119.0" y="620.0"/>
      <point x="235.0" y="741.0"/>
      <point x="464.0" y="741.0" type="curve" smooth="yes"/>
      <point x="694.0" y="741.0"/>
      <point x="810.0" y="620.0"/>
    </contour>
    <contour>
      <point x="464.0" y="750.0" type="move" name="top"/>
    </contour>
  </outline>
</glyph>
<glyph name="A" format="1">
  <advance width="830"/>
  <unicode hex="0041"/>
  <outline>
    <contour>
      <point x="437" y="750" type="line"/>
      <point x="437" y="725" type="line"/>
      <point x="210" y="725" type="line"/>
      <point x="210" y="750" type="line"/>
    </contour>
    <contour>
      <point x="606" y="262" type="line"/>
      <point x="606" y="235" type="line"/>
      <point x="214" y="235" type="line"/>
      <point x="214" y="262" type="line"/>
    </contour>
    <contour>
      <point x="705" y="0" type="line"/>
      <point x="578" y="0" type="line"/>
      <point x="355" y="750" type="line"/>
      <point x="482" y="750" type="line"/>
    </contour>
    <contour>
      <point x="780" y="25" type="line"/>
      <point x="780" y="0" type="line"/>
      <point x="458" y="0" type="line"/>
      <point x="458" y="25" type="line"/>
    </contour>
    <contour>
      <point x="276" y="0" type="line"/>
      <point x="276" y="25" type="line"/>
      <point x="50" y="25" type="line"/>
      <point x="50" y="0" type="line"/>
    </contour>
    <contour>
      <point x="343" y="750" type="line"/>
      <point x="373" y="750" type="line" smooth="yes"/>
      <point x="161" y="25" type="line"/>
      <point x="131" y="25" type="line"/>
    </contour>
    <contour>
      <point x="414.0" y="750.0" type="move" name="top"/>
    </contour>
  </outline>
</glyph>
<glyph name="B" format="1">
  <advance width="830"/>
  <unicode hex="0042"/>
  <outline>
    <contour>
      <point x="322" y="0" type="line"/>
      <point x="194" y="0" type="line"/>
      <point x="194" y="750" type="line"/>
      <point x="322" y="750" type="line"/>
    </contour>
    <contour>
      <point x="236" y="0" type="line"/>
      <point x="90" y="0" type="line"/>
      <point x="90" y="25" type="line"/>
      <point x="236" y="25" type="line"/>
    </contour>
    <contour>
      <point x="90" y="725" type="line"/>
      <point x="90" y="750" type="line"/>
      <point x="236" y="750" type="line"/>
      <point x="236" y="725" type="line"/>
    </contour>
    <contour>
      <point x="311" y="399" type="line"/>
      <point x="484" y="399" type="line" smooth="yes"/>
      <point x="615" y="399"/>
      <point x="750" y="336"/>
      <point x="750" y="198" type="curve" smooth="yes"/>
      <point x="750" y="63"/>
      <point x="630" y="0"/>
      <point x="493" y="0" type="curve" smooth="yes"/>
      <point x="312" y="0" type="line"/>
      <point x="312" y="27" type="line"/>
      <point x="432" y="27" type="line" smooth="yes"/>
      <point x="565" y="27"/>
      <point x="610" y="70"/>
      <point x="610" y="197" type="curve" smooth="yes"/>
      <point x="610" y="326"/>
      <point x="564" y="372"/>
      <point x="432" y="372" type="curve" smooth="yes"/>
      <point x="311" y="372" type="line"/>
    </contour>
    <contour>
      <point x="251" y="372" type="line"/>
      <point x="251" y="399" type="line"/>
      <point x="372" y="399" type="line" smooth="yes"/>
      <point x="508" y="399"/>
      <point x="550" y="437"/>
      <point x="550" y="563" type="curve" smooth="yes"/>
      <point x="550" y="683"/>
      <point x="506" y="723"/>
      <point x="372" y="723" type="curve" smooth="yes"/>
      <point x="252" y="723" type="line"/>
      <point x="252" y="750" type="line"/>
      <point x="433" y="750" type="line" smooth="yes"/>
      <point x="570" y="750"/>
      <point x="690" y="691"/>
      <point x="690" y="562" type="curve" smooth="yes"/>
      <point x="690" y="433"/>
      <point x="530" y="372"/>
      <point x="374" y="372" type="curve" smooth="yes"/>
    </contour>
  </outline>
</glyph>
<glyph name="D" format="1">
  <advance width="850"/>
  <unicode hex="0044"/>
  <outline>
    <contour>
      <point x="332" y="0" type="line"/>
      <point x="204" y="0" type="line"/>
      <point x="204" y="750" type="line"/>
      <point x="332" y="750" type="line"/>
    </contour>
    <contour>
      <point x="246" y="0" type="line"/>
      <point x="90" y="0" type="line"/>
      <point x="90" y="25" type="line"/>
      <point x="246" y="25" type="line"/>
    </contour>
    <contour>
      <point x="90" y="724" type="line"/>
      <point x="90" y="750" type="line"/>
      <point x="246" y="750" type="line"/>
      <point x="246" y="724" type="line"/>
    </contour>
    <contour>
      <point x="322" y="750" type="line"/>
      <point x="401" y="750" type="line" smooth="yes"/>
      <point x="608" y="750"/>
      <point x="760" y="642"/>
      <point x="760" y="375" type="curve" smooth="yes"/>
      <point x="760" y="108"/>
      <point x="608" y="0"/>
      <point x="404" y="0" type="curve" smooth="yes"/>
      <point x="323" y="0" type="line"/>
      <point x="323" y="28" type="line"/>
      <point x="384" y="28" type="line" smooth="yes"/>
      <point x="557" y="28"/>
      <point x="620" y="77"/>
      <point x="620" y="374" type="curve" smooth="yes"/>
      <point x="620" y="672"/>
      <point x="555" y="722"/>
      <point x="382" y="722" type="curve" smooth="yes"/>
      <point x="322" y="722" type="line"/>
    </contour>
  </outline>
</glyph>
<glyph name="E" format="1">
  <advance width="810"/>
  <unicode hex="0045"/>
  <outline>
    <contour>
      <point x="322" y="0" type="line"/>
      <point x="194" y="0" type="line"/>
      <point x="194" y="750" type="line"/>
      <point x="322" y="750" type="line"/>
    </contour>
    <contour>
      <point x="266" y="0" type="line"/>
      <point x="90" y="0" type="line"/>
      <point x="90" y="25" type="line"/>
      <point x="266" y="25" type="line"/>
    </contour>
    <contour>
      <point x="90" y="725" type="line"/>
      <point x="90" y="750" type="line"/>
      <point x="266" y="750" type="line"/>
      <point x="266" y="725" type="line"/>
    </contour>
    <contour>
      <point x="490" y="394" type="line"/>
      <point x="490" y="367" type="line"/>
      <point x="289" y="367" type="line"/>
      <point x="289" y="394" type="line"/>
    </contour>
    <contour>
      <point x="681" y="461" type="line"/>
      <point x="656" y="461" type="line"/>
      <point x="656" y="566" type="line" smooth="yes"/>
      <point x="656" y="694"/>
      <point x="629" y="723"/>
      <point x="499" y="723" type="curve" smooth="yes"/>
      <point x="298" y="723" type="line"/>
      <point x="298" y="750" type="line"/>
      <point x="681" y="750" type="line"/>
    </contour>
    <contour>
      <point x="700" y="289" type="line"/>
      <point x="700" y="0" type="line"/>
      <point x="298" y="0" type="line"/>
      <point x="298" y="27" type="line"/>
      <point x="498" y="27" type="line" smooth="yes"/>
      <point x="642" y="27"/>
      <point x="675" y="60"/>
      <point x="675" y="194" type="curve" smooth="yes"/>
      <point x="675" y="289" type="line"/>
    </contour>
    <contour>
      <point x="476" y="202" type="line"/>
      <point x="476" y="545" type="line"/>
      <point x="501" y="545" type="line"/>
      <point x="501" y="202" type="line"/>
    </contour>
    <contour>
      <point x="434" y="750" type="move" name="top"/>
    </contour>
  </outline>
</glyph>
<glyph name="F" format="1">
  <advance width="750"/>
  <unicode hex="0046"/>
  <outline>
    <contour>
      <point x="322" y="750" type="line"/>
      <point x="322" y="0" type="line"/>
      <point x="194" y="0" type="line"/>
      <point x="194" y="750" type="line"/>
    </contour>
    <contour>
      <point x="266" y="750" type="line"/>
      <point x="266" y="725" type="line"/>
      <point x="90" y="725" type="line"/>
      <point x="90" y="750" type="line"/>
    </contour>
    <contour>
      <point x="90" y="25" type="line"/>
      <point x="450" y="25" type="line"/>
      <point x="450" y="0" type="line"/>
      <point x="90" y="0" type="line"/>
    </contour>
    <contour>
      <point x="495" y="326" type="line"/>
      <point x="309" y="326" type="line"/>
      <point x="309" y="353" type="line"/>
      <point x="495" y="353" type="line"/>
    </contour>
    <contour>
      <point x="481" y="511" type="line"/>
      <point x="506" y="511" type="line"/>
      <point x="506" y="168" type="line"/>
      <point x="481" y="168" type="line"/>
    </contour>
    <contour>
      <point x="660" y="411" type="line"/>
      <point x="635" y="411" type="line"/>
      <point x="635" y="556" type="line" smooth="yes"/>
      <point x="635" y="690"/>
      <point x="602" y="723"/>
      <point x="458" y="723" type="curve" smooth="yes"/>
      <point x="308" y="723" type="line"/>
      <point x="308" y="750" type="line"/>
      <point x="660" y="750" type="line"/>
    </contour>
  </outline>
</glyph>
<glyph name="I" format="1">
  <advance width="530"/>
  <unicode hex="0049"/>
  <outline>
    <contour>
      <point x="329" y="0" type="line"/>
      <point x="201" y="0" type="line"/>
      <point x="201" y="750" type="line"/>
      <point x="329" y="750" type="line"/>
    </contour>
    <contour>
      <point x="439" y="25" type="line"/>
      <point x="439" y="0" type="line"/>
      <point x="307" y="0" type="line"/>
      <point x="307" y="25" type="line"/>
    </contour>
    <contour>
      <point x="223" y="0" type="line"/>
      <point x="90" y="0" type="line"/>
      <point x="90" y="25" type="line"/>
      <point x="223" y="25" type="line"/>
    </contour>
    <contour>
      <point x="90" y="725" type="line"/>
      <point x="90" y="750" type="line"/>
      <point x="228" y="750" type="line"/>
      <point x="228" y="725" type="line"/>
    </contour>
    <contour>
      <point x="440" y="750" type="line"/>
      <point x="440" y="726" type="line"/>
      <point x="307" y="726" type="line"/>
      <point x="307" y="750" type="line"/>
    </contour>
    <contour>
      <point x="265" y="750" type="move" name="top"/>
    </contour>
  </outline>
</glyph>
<glyph name="J" format="1">
  <advance width="591"/>
  <unicode hex="004A"/>
  <outline>
    <contour>
      <point x="397" y="750" type="line"/>
      <point x="397" y="725" type="line"/>
      <point x="541" y="725" type="line"/>
      <point x="541" y="750" type="line"/>
    </contour>
    <contour>
      <point x="151" y="725" type="line"/>
      <point x="315" y="725" type="line"/>
      <point x="315" y="750" type="line"/>
      <point x="151" y="750" type="line"/>
    </contour>
    <contour>
      <point x="203" y="7" type="curve" smooth="yes"/>
      <point x="133" y="7"/>
      <point x="95" y="94"/>
      <point x="95" y="231" type="curve" smooth="yes"/>
      <point x="95" y="283" type="line"/>
      <point x="70" y="283" type="line"/>
      <point x="70" y="229" type="line" smooth="yes"/>
      <point x="70" y="79"/>
      <point x="116" y="-20"/>
      <point x="219" y="-20" type="curve" smooth="yes"/>
      <point x="332" y="-20"/>
      <point x="420" y="54"/>
      <point x="420" y="279" type="curve" smooth="yes"/>
      <point x="420" y="750" type="line"/>
      <point x="292" y="750" type="line"/>
      <point x="292" y="278" type="line" smooth="yes"/>
      <point x="292" y="70"/>
      <point x="271" y="7"/>
    </contour>
    <contour>
      <point x="70" y="283" type="line"/>
      <point x="70" y="0" type="line"/>
      <point x="95" y="0" type="line"/>
      <point x="95" y="283" type="line"/>
    </contour>
  </outline>
</glyph>
<glyph name="K" format="1">
  <advance width="830"/>
  <unicode hex="004B"/>
  <outline>
    <contour>
      <point x="448" y="0" type="line"/>
      <point x="90" y="0" type="line"/>
      <point x="90" y="25" type="line"/>
      <point x="448" y="25" type="line"/>
    </contour>
    <contour>
      <point x="90" y="724" type="line"/>
      <point x="90" y="750" type="line"/>
      <point x="428" y="750" type="line"/>
      <point x="428" y="724" type="line"/>
    </contour>
    <contour>
      <point x="659" y="750" type="line"/>
      <point x="418" y="366" type="line"/>
      <point x="384" y="366" type="line"/>
      <point x="625" y="750" type="line"/>
    </contour>
    <contour>
      <point x="745" y="725" type="line"/>
      <point x="516" y="725" type="line"/>
      <point x="516" y="750" type="line"/>
      <point x="745" y="750" type="line"/>
    </contour>
    <contour>
      <point x="378" y="386" type="line"/>
      <point x="669" y="386"/>
      <point x="580" y="27"/>
      <point x="669" y="27" type="curve" smooth="yes"/>
      <point x="711" y="27"/>
      <point x="731" y="48"/>
      <point x="731" y="103" type="curve" smooth="yes"/>
      <point x="731" y="210" type="line"/>
      <point x="756" y="210" type="line"/>
      <point x="756" y="103" type="line" smooth="yes"/>
      <point x="756" y="19"/>
      <point x="709" y="-20"/>
      <point x="625" y="-20" type="curve" smooth="yes"/>
      <point x="401" y="-20"/>
      <point x="543" y="359"/>
      <point x="365" y="359" type="curve"/>
    </contour>
    <contour>
      <point x="322" y="0" type="line"/>
      <point x="194" y="0" type="line"/>
      <point x="194" y="750" type="line"/>
      <point x="322" y="750" type="line"/>
    </contour>
    <contour>
      <point x="387" y="359" type="line"/>
      <point x="221" y="359" type="line"/>
      <point x="221" y="386" type="line"/>
      <point x="387" y="386" type="line"/>
    </contour>
  </outline>
</glyph>
<glyph name="L" format="1">
  <advance width="750"/>
  <unicode hex="004C"/>
  <outline>
    <contour>
      <point x="300" y="25" type="line"/>
      <point x="300" y="0" type="line"/>
      <point x="90" y="0" type="line"/>
      <point x="90" y="25" type="line"/>
    </contour>
    <contour>
      <point x="322" y="750" type="line"/>
      <point x="322" y="11" type="line"/>
      <point x="194" y="11" type="line"/>
      <point x="194" y="750" type="line"/>
    </contour>
    <contour>
      <point x="445" y="725" type="line"/>
      <point x="298" y="725" type="line"/>
      <point x="298" y="750" type="line"/>
      <point x="445" y="750" type="line"/>
    </contour>
    <contour>
      <point x="217" y="750" type="line"/>
      <point x="217" y="725" type="line"/>
      <point x="91" y="725" type="line"/>
      <point x="91" y="750" type="line"/>
    </contour>
    <contour>
      <point x="670" y="339" type="line"/>
      <point x="670" y="0" type="line"/>
      <point x="298" y="0" type="line"/>
      <point x="298" y="27" type="line"/>
      <point x="468" y="27" type="line" smooth="yes"/>
      <point x="612" y="27"/>
      <point x="645" y="60"/>
      <point x="645" y="194" type="curve" smooth="yes"/>
      <point x="645" y="339" type="line"/>
    </contour>
  </outline>
</glyph>
<glyph name="N" format="1">
  <advance width="810"/>
  <unicode hex="004E"/>
  <outline>
    <contour>
      <point x="339" y="0" type="line"/>
      <point x="339" y="25" type="line"/>
      <point x="90" y="25" type="line"/>
      <point x="90" y="0" type="line"/>
    </contour>
    <contour>
      <point x="619" y="-20" type="line"/>
      <point x="646" y="-20" type="line"/>
      <point x="646" y="730" type="line"/>
      <point x="619" y="730" type="line"/>
    </contour>
    <contour>
      <point x="184" y="7" type="line"/>
      <point x="212" y="7" type="line"/>
      <point x="212" y="724" type="line"/>
      <point x="618" y="-20" type="line"/>
      <point x="636" y="217" type="line"/>
      <point x="346" y="750" type="line"/>
      <point x="184" y="750" type="line"/>
    </contour>
    <contour>
      <point x="326" y="725" type="line"/>
      <point x="326" y="750" type="line"/>
      <point x="90" y="750" type="line"/>
      <point x="90" y="725" type="line"/>
    </contour>
    <contour>
      <point x="740" y="725" type="line"/>
      <point x="740" y="750" type="line"/>
      <point x="490" y="750" type="line"/>
      <point x="490" y="725" type="line"/>
    </contour>
    <contour>
      <point x="481" y="750" type="move" name="top"/>
    </contour>
  </outline>
</glyph>
<glyph name="O" format="1">
  <advance width="830"/>
  <unicode hex="004F"/>
  <outline>
    <contour>
      <point x="414" y="770" type="curve" smooth="yes"/>
      <point x="199" y="770"/>
      <point x="90" y="627"/>
      <point x="90" y="368" type="curve" smooth="yes"/>
      <point x="90" y="117"/>
      <point x="202" y="-20"/>
      <point x="414" y="-20" type="curve" smooth="yes"/>
      <point x="626" y="-20"/>
      <point x="740" y="117"/>
      <point x="740" y="368" type="curve" smooth="yes"/>
      <point x="740" y="627"/>
      <point x="631" y="770"/>
    </contour>
    <contour>
      <point x="414" y="745" type="curve" smooth="yes"/>
      <point x="554" y="745"/>
      <point x="600" y="641"/>
      <point x="600" y="367" type="curve" smooth="yes"/>
      <point x="600" y="109"/>
      <point x="551" y="5"/>
      <point x="414" y="5" type="curve" smooth="yes"/>
      <point x="277" y="5"/>
      <point x="230" y="109"/>
      <point x="230" y="367" type="curve" smooth="yes"/>
      <point x="230" y="641"/>
      <point x="274" y="745"/>
    </contour>
    <contour>
      <point x="414" y="750" type="move" name="top"/>
    </contour>
  </outline>
</glyph>
<glyph name="P" format="1">
  <advance width="781"/>
  <unicode hex="0050"/>
  <outline>
    <contour>
      <point x="322" y="750" type="line"/>
      <point x="322" y="0" type="line"/>
      <point x="194" y="0" type="line"/>
      <point x="194" y="750" type="line"/>
    </contour>
    <contour>
      <point x="246" y="750" type="line"/>
      <point x="246" y="725" type="line"/>
      <point x="90" y="725" type="line"/>
      <point x="90" y="750" type="line"/>
    </contour>
    <contour>
      <point x="90" y="25" type="line"/>
      <point x="246" y="25" type="line"/>
      <point x="246" y="0" type="line"/>
      <point x="90" y="0" type="line"/>
    </contour>
    <contour>
      <point x="321" y="321" type="line"/>
      <point x="321" y="321"/>
      <point x="321" y="332"/>
      <point x="321" y="348" type="curve"/>
      <point x="412" y="348" type="line" smooth="yes"/>
      <point x="536" y="348"/>
      <point x="581" y="398"/>
      <point x="581" y="538" type="curve" smooth="yes"/>
      <point x="581" y="676"/>
      <point x="538" y="723"/>
      <point x="412" y="723" type="curve"/>
      <point x="322" y="723" type="line"/>
      <point x="322" y="750" type="line"/>
      <point x="473" y="750" type="line" smooth="yes"/>
      <point x="605" y="750"/>
      <point x="721" y="683"/>
      <point x="721" y="537" type="curve" smooth="yes"/>
      <point x="721" y="389"/>
      <point x="591" y="321"/>
      <point x="464" y="321" type="curve"/>
    </contour>
    <contour>
      <point x="308" y="25" type="line"/>
      <point x="474" y="25" type="line"/>
      <point x="474" y="0" type="line"/>
      <point x="308" y="0" type="line"/>
    </contour>
  </outline>
</glyph>
<glyph name="Q" format="1">
  <advance width="830"/>
  <unicode hex="0051"/>
  <outline>
    <contour>
      <point x="380" y="255" type="curve" smooth="yes"/>
      <point x="304.6643356643357" y="255.0"/>
      <point x="247.0" y="198.0"/>
      <point x="247" y="129" type="curve" smooth="yes"/>
      <point x="247" y="98"/>
      <point x="257" y="65"/>
      <point x="285" y="27" type="curve"/>
      <point x="342" y="18" type="line"/>
      <point x="299" y="32"/>
      <point x="274" y="80"/>
      <point x="274" y="125" type="curve" smooth="yes"/>
      <point x="274.0" y="179.0"/>
      <point x="303.79611650485435" y="229.0"/>
      <point x="367" y="229" type="curve" smooth="yes"/>
      <point x="559" y="229"/>
      <point x="427" y="-250"/>
      <point x="647" y="-250" type="curve" smooth="yes"/>
      <point x="731" y="-250"/>
      <point x="778" y="-211"/>
      <point x="778" y="-127" type="curve" smooth="yes"/>
      <point x="778" y="-20" type="line"/>
      <point x="753" y="-20" type="line"/>
      <point x="753" y="-127" type="line" smooth="yes"/>
      <point x="753" y="-182"/>
      <point x="733" y="-203"/>
      <point x="691" y="-203" type="curve" smooth="yes"/>
      <point x="574" y="-203"/>
      <point x="658" y="255"/>
    </contour>
    <component base="O"/>
    <contour>
      <point x="414.0" y="750.0" type="move" name="top"/>
    </contour>
  </outline>
</glyph>
<glyph name="R" format="1">
  <advance width="867"/>
  <unicode hex="0052"/>
  <outline>
    <contour>
      <point x="322" y="750" type="line"/>
      <point x="322" y="0" type="line"/>
      <point x="194" y="0" type="line"/>
      <point x="194" y="750" type="line"/>
    </contour>
    <contour>
      <point x="266" y="750" type="line"/>
      <point x="266" y="725" type="line"/>
      <point x="90" y="725" type="line"/>
      <point x="90" y="750" type="line"/>
    </contour>
    <contour>
      <point x="90" y="25" type="line"/>
      <point x="266" y="25" type="line"/>
      <point x="266" y="0" type="line"/>
      <point x="90" y="0" type="line"/>
    </contour>
    <contour>
      <point x="311" y="361" type="line"/>
      <point x="311" y="361"/>
      <point x="311" y="372"/>
      <point x="311" y="388" type="curve"/>
      <point x="423" y="388" type="line" smooth="yes"/>
      <point x="529.9893617021277" y="388"/>
      <point x="601.0" y="410.0"/>
      <point x="601" y="558" type="curve" smooth="yes"/>
      <point x="601.0" y="705.0"/>
      <point x="529.9893617021277" y="723"/>
      <point x="423" y="723" type="curve" smooth="yes"/>
      <point x="312" y="723" type="line"/>
      <point x="312" y="750" type="line"/>
      <point x="484" y="750" type="line" smooth="yes"/>
      <point x="620.6816479400749" y="750"/>
      <point x="741.0" y="689.0"/>
      <point x="741" y="557" type="curve"/>
      <point x="741.0" y="423.0"/>
      <point x="606.072463768116" y="361"/>
      <point x="475" y="361" type="curve" smooth="yes"/>
    </contour>
    <contour>
      <point x="308" y="25" type="line"/>
      <point x="412" y="25" type="line"/>
      <point x="412" y="0" type="line"/>
      <point x="308" y="0" type="line"/>
    </contour>
    <contour>
      <point x="379" y="377" type="line"/>
      <point x="675.0557184750733" y="377.0"/>
      <point x="585.7536656891496" y="27.0"/>
      <point x="710" y="27" type="curve" smooth="yes"/>
      <point x="752" y="27"/>
      <point x="772" y="48"/>
      <point x="772" y="103" type="curve" smooth="yes"/>
      <point x="772" y="210" type="line"/>
      <point x="797" y="210" type="line"/>
      <point x="797" y="103" type="line" smooth="yes"/>
      <point x="797" y="19"/>
      <point x="750" y="-20"/>
      <point x="666" y="-20" type="curve" smooth="yes"/>
      <point x="429.8709677419355" y="-20.0"/>
      <point x="572.1290322580645" y="361.0"/>
      <point x="366" y="361" type="curve"/>
    </contour>
  </outline>
</glyph>
<glyph name="S" format="1">
  <advance width="726"/>
  <unicode hex="0053"/>
  <outline>
    <contour>
      <point x="551" y="750" type="line"/>
      <point x="526" y="750" type="line"/>
      <point x="526" y="477" type="line" smooth="yes"/>
      <point x="551" y="477" type="line"/>
    </contour>
    <contour>
      <point x="100" y="299" type="line" smooth="yes"/>
      <point x="100" y="108"/>
      <point x="223" y="-20"/>
      <point x="373" y="-20" type="curve" smooth="yes"/>
      <point x="511" y="-20"/>
      <point x="626" y="46"/>
      <point x="626" y="180" type="curve" smooth="yes"/>
      <point x="626" y="289"/>
      <point x="584" y="370"/>
      <point x="411" y="436" type="curve" smooth="yes"/>
      <point x="286" y="483"/>
      <point x="245" y="516"/>
      <point x="245" y="610" type="curve" smooth="yes"/>
      <point x="245" y="707"/>
      <point x="280" y="743"/>
      <point x="352" y="743" type="curve" smooth="yes"/>
      <point x="441" y="743"/>
      <point x="526" y="655"/>
      <point x="526" y="489" type="curve" smooth="yes"/>
      <point x="526" y="477" type="line"/>
      <point x="551" y="477" type="line"/>
      <point x="551" y="682"/>
      <point x="450" y="770"/>
      <point x="337" y="770" type="curve" smooth="yes"/>
      <point x="237" y="770"/>
      <point x="125" y="701"/>
      <point x="125" y="569" type="curve" smooth="yes"/>
      <point x="125" y="448"/>
      <point x="182" y="393"/>
      <point x="335" y="329" type="curve" smooth="yes"/>
      <point x="455" y="280"/>
      <point x="497" y="234"/>
      <point x="497" y="132" type="curve"/>
      <point x="497" y="54"/>
      <point x="464" y="7"/>
      <point x="370" y="7" type="curve" smooth="yes"/>
      <point x="240" y="7"/>
      <point x="125" y="121"/>
      <point x="125" y="301" type="curve" smooth="yes"/>
      <point x="125" y="333" type="line"/>
      <point x="100" y="333" type="line"/>
    </contour>
    <contour>
      <point x="100" y="333" type="line"/>
      <point x="100" y="0" type="line"/>
      <point x="125" y="0" type="line"/>
      <point x="125" y="333" type="line"/>
    </contour>
    <contour>
      <point x="340" y="750" type="move" name="top"/>
    </contour>
  </outline>
</glyph>
<glyph name="T" format="1">
  <advance width="730"/>
  <unicode hex="0054"/>
  <outline>
    <contour>
      <point x="429" y="0" type="line"/>
      <point x="301" y="0" type="line"/>
      <point x="301" y="750" type="line"/>
      <point x="429" y="750" type="line"/>
    </contour>
    <contour>
      <point x="199" y="0" type="line"/>
      <point x="199" y="25" type="line"/>
      <point x="531" y="25" type="line"/>
      <point x="531" y="0" type="line"/>
    </contour>
    <contour>
      <point x="670" y="431" type="line"/>
      <point x="645" y="431" type="line"/>
      <point x="645" y="556" type="line" smooth="yes"/>
      <point x="645" y="690.0"/>
      <point x="615.3307086614172" y="723"/>
      <point x="488" y="723" type="curve" smooth="yes"/>
      <point x="338" y="723" type="line"/>
      <point x="338" y="750" type="line"/>
      <point x="670" y="750" type="line"/>
    </contour>
    <contour>
      <point x="60" y="431" type="line"/>
      <point x="60" y="750" type="line"/>
      <point x="392" y="750" type="line"/>
      <point x="392" y="723" type="line"/>
      <point x="242" y="723" type="line" smooth="yes"/>
      <point x="114.66929133858268" y="723"/>
      <point x="85" y="690.0"/>
      <point x="85" y="556" type="curve" smooth="yes"/>
      <point x="85" y="431" type="line"/>
    </contour>
  </outline>
</glyph>
<glyph name="U" format="1">
  <advance width="850"/>
  <unicode hex="0055"/>
  <outline>
    <contour>
      <point x="687" y="311" type="line" smooth="yes"/>
      <point x="687" y="105"/>
      <point x="614" y="-20"/>
      <point x="443" y="-20" type="curve" smooth="yes"/>
      <point x="276" y="-20"/>
      <point x="184" y="74"/>
      <point x="184" y="280" type="curve" smooth="yes"/>
      <point x="184" y="372" type="line"/>
      <point x="310" y="372" type="line"/>
      <point x="310" y="279" type="line" smooth="yes"/>
      <point x="310" y="65"/>
      <point x="350" y="14"/>
      <point x="459" y="16" type="curve" smooth="yes"/>
      <point x="589" y="18"/>
      <point x="656" y="110"/>
      <point x="656" y="311" type="curve" smooth="yes"/>
      <point x="656" y="750" type="line"/>
      <point x="687" y="750" type="line"/>
    </contour>
    <contour>
      <point x="310" y="750" type="line"/>
      <point x="310" y="302" type="line"/>
      <point x="184" y="302" type="line"/>
      <point x="184" y="750" type="line"/>
    </contour>
    <contour>
      <point x="206" y="750" type="line"/>
      <point x="206" y="725" type="line"/>
      <point x="90" y="725" type="line"/>
      <point x="90" y="750" type="line"/>
    </contour>
    <contour>
      <point x="418" y="725" type="line"/>
      <point x="287" y="725" type="line"/>
      <point x="287" y="750" type="line"/>
      <point x="418" y="750" type="line"/>
    </contour>
    <contour>
      <point x="656" y="750" type="line"/>
      <point x="656" y="725" type="line"/>
      <point x="560" y="725" type="line"/>
      <point x="560" y="750" type="line"/>
    </contour>
    <contour>
      <point x="780" y="725" type="line"/>
      <point x="687" y="725" type="line"/>
      <point x="687" y="750" type="line"/>
      <point x="780" y="750" type="line"/>
    </contour>
    <contour>
      <point x="466" y="750" type="move" name="top"/>
    </contour>
  </outline>
</glyph>
<glyph name="V" format="1">
  <advance width="770"/>
  <unicode hex="0056"/>
  <outline>
    <contour>
      <point x="95" y="750" type="line"/>
      <point x="222" y="750" type="line"/>
      <point x="445" y="0" type="line"/>
      <point x="318" y="0" type="line"/>
    </contour>
    <contour>
      <point x="20" y="725" type="line"/>
      <point x="20" y="750" type="line"/>
      <point x="352" y="750" type="line"/>
      <point x="352" y="725" type="line"/>
    </contour>
    <contour>
      <point x="514" y="750" type="line"/>
      <point x="514" y="725" type="line"/>
      <point x="750" y="725" type="line"/>
      <point x="750" y="750" type="line"/>
    </contour>
    <contour>
      <point x="457" y="0" type="line"/>
      <point x="427" y="0" type="line" smooth="yes"/>
      <point x="639" y="725" type="line"/>
      <point x="669" y="725" type="line"/>
    </contour>
  </outline>
</glyph>
<glyph name="W" format="1">
  <advance width="900"/>
  <unicode hex="0057"/>
  <outline>
    <contour>
      <point x="40" y="725" type="line"/>
      <point x="870" y="725" type="line"/>
      <point x="870" y="750" type="line"/>
      <point x="40" y="750" type="line"/>
    </contour>
    <contour>
      <point x="366" y="0" type="line"/>
      <point x="521" y="725" type="line"/>
      <point x="490" y="725" type="line"/>
      <point x="335" y="0" type="line"/>
    </contour>
    <contour>
      <point x="338" y="0" type="line"/>
      <point x="248" y="750" type="line"/>
      <point x="121" y="750" type="line"/>
      <point x="211" y="0" type="line"/>
    </contour>
    <contour>
      <point x="698" y="0" type="line"/>
      <point x="790" y="730" type="line"/>
      <point x="759" y="730" type="line"/>
      <point x="667" y="0" type="line"/>
    </contour>
    <contour>
      <point x="670" y="0" type="line"/>
      <point x="517" y="745" type="line"/>
      <point x="457" y="457" type="line"/>
      <point x="542" y="0" type="line"/>
    </contour>
  </outline>
</glyph>
<glyph name="X" format="1">
  <advance width="830"/>
  <unicode hex="0058"/>
  <outline>
    <contour>
      <point x="320" y="0" type="line"/>
      <point x="320" y="25" type="line"/>
      <point x="70" y="25" type="line"/>
      <point x="70" y="0" type="line"/>
    </contour>
    <contour>
      <point x="139" y="750" type="line"/>
      <point x="557" y="0" type="line"/>
      <point x="699" y="0" type="line"/>
      <point x="283" y="750" type="line"/>
    </contour>
    <contour>
      <point x="424" y="725" type="line"/>
      <point x="424" y="750" type="line"/>
      <point x="70" y="750" type="line"/>
      <point x="70" y="725" type="line"/>
    </contour>
    <contour>
      <point x="760" y="25" type="line"/>
      <point x="438" y="25" type="line"/>
      <point x="438" y="0" type="line"/>
      <point x="760" y="0" type="line"/>
    </contour>
    <contour>
      <point x="760" y="725" type="line"/>
      <point x="760" y="750" type="line"/>
      <point x="542" y="750" type="line"/>
      <point x="542" y="725" type="line"/>
    </contour>
    <contour>
      <point x="410" y="349" type="line"/>
      <point x="444" y="349" type="line"/>
      <point x="669" y="730" type="line"/>
      <point x="636" y="730" type="line"/>
    </contour>
    <contour>
      <point x="152" y="15" type="line"/>
      <point x="186" y="15" type="line"/>
      <point x="411" y="396" type="line"/>
      <point x="378" y="396" type="line"/>
    </contour>
  </outline>
</glyph>
<glyph name="Y" format="1">
  <advance width="830"/>
  <unicode hex="0059"/>
  <outline>
    <contour>
      <point x="620" y="0" type="line"/>
      <point x="620" y="25" type="line"/>
      <point x="210" y="25" type="line"/>
      <point x="210" y="0" type="line"/>
    </contour>
    <contour>
      <point x="146" y="750" type="line"/>
      <point x="358" y="194" type="line"/>
      <point x="469" y="217" type="line"/>
      <point x="286" y="750" type="line"/>
    </contour>
    <contour>
      <point x="566" y="725" type="line"/>
      <point x="566" y="750" type="line"/>
      <point x="60" y="750" type="line"/>
      <point x="60" y="725" type="line"/>
    </contour>
    <contour>
      <point x="770" y="725" type="line"/>
      <point x="770" y="750" type="line"/>
      <point x="472" y="750" type="line"/>
      <point x="472" y="725" type="line"/>
    </contour>
    <contour>
      <point x="438" y="126" type="line"/>
      <point x="677" y="730" type="line"/>
      <point x="648" y="730" type="line"/>
      <point x="411" y="126" type="line"/>
    </contour>
    <contour>
      <point x="479" y="22" type="line"/>
      <point x="479" y="233" type="line" smooth="yes"/>
      <point x="351" y="226" type="line"/>
      <point x="351" y="22" type="line" smooth="yes"/>
    </contour>
    <contour>
      <point x="458" y="750" type="move" name="top"/>
    </contour>
  </outline>
</glyph>
<glyph name="Z" format="1">
  <advance width="762"/>
  <unicode hex="005A"/>
  <outline>
    <contour>
      <point x="657" y="723" type="line"/>
      <point x="513" y="723" type="line"/>
      <point x="117" y="27" type="line"/>
      <point x="257" y="27" type="line"/>
    </contour>
    <contour>
      <point x="651" y="449" type="line"/>
      <point x="651" y="0" type="line"/>
      <point x="117" y="0" type="line"/>
      <point x="117" y="27" type="line"/>
      <point x="449" y="27" type="line" smooth="yes"/>
      <point x="593" y="27"/>
      <point x="626" y="60"/>
      <point x="626" y="194" type="curve" smooth="yes"/>
      <point x="626" y="449" type="line"/>
    </contour>
    <contour>
      <point x="135" y="341" type="line"/>
      <point x="135" y="750" type="line"/>
      <point x="657" y="750" type="line"/>
      <point x="657" y="723" type="line"/>
      <point x="337" y="723" type="line" smooth="yes"/>
      <point x="193" y="723"/>
      <point x="160" y="690"/>
      <point x="160" y="556" type="curve" smooth="yes"/>
      <point x="160" y="341" type="line"/>
    </contour>
    <contour>
      <point x="401" y="750" type="move" name="top"/>
    </contour>
  </outline>
</glyph>
<glyph name="bracketleft" format="1">
  <advance width="465"/>
  <unicode hex="005B"/>
  <outline>
    <contour>
      <point x="434" y="-80" type="line"/>
      <point x="149" y="-80" type="line"/>
      <point x="149" y="-53" type="line"/>
      <point x="434" y="-53" type="line"/>
    </contour>
    <contour>
      <point x="434" y="803" type="line"/>
      <point x="149" y="803" type="line"/>
      <point x="149" y="830" type="line"/>
      <point x="434" y="830" type="line"/>
    </contour>
    <contour>
      <point x="156" y="830" type="line"/>
      <point x="156" y="-80" type="line"/>
      <point x="129" y="-80" type="line"/>
      <point x="129" y="830" type="line"/>
    </contour>
    <contour>
      <point x="444.0" y="750.0" type="move" name="top"/>
    </contour>
  </outline>
</glyph>
<glyph name="backslash" format="1">
  <advance width="366"/>
  <unicode hex="005C"/>
  <outline>
    <contour>
      <point x="285" y="0" type="line"/>
      <point x="316" y="0" type="line" smooth="yes"/>
      <point x="81" y="750" type="line"/>
      <point x="50" y="750" type="line"/>
    </contour>
  </outline>
</glyph>
<glyph name="underscore" format="1">
  <advance width="930"/>
  <unicode hex="005F"/>
  <outline>
    <contour>
      <point x="845" y="-48" type="line"/>
      <point x="85" y="-48" type="line"/>
      <point x="85" y="-21" type="line"/>
      <point x="845" y="-21" type="line"/>
    </contour>
  </outline>
</glyph>
<glyph name="a" format="1">
  <advance width="830"/>
  <unicode hex="0061"/>
  <outline>
    <contour>
      <point x="641" y="119" type="curve" smooth="yes"/>
      <point x="641" y="527" type="line" smooth="yes"/>
      <point x="641" y="674"/>
      <point x="567" y="770"/>
      <point x="400" y="770" type="curve" smooth="yes"/>
      <point x="246.70662460567823" y="770.0"/>
      <point x="133.0" y="635.0"/>
      <point x="133" y="419" type="curve"/>
      <point x="158" y="419" type="line"/>
      <point x="158.0" y="632.0"/>
      <point x="273.0344827586207" y="743.0"/>
      <point x="398" y="743" type="curve" smooth="yes"/>
      <point x="490" y="743"/>
      <point x="513" y="688"/>
      <point x="513" y="547" type="curve" smooth="yes"/>
      <point x="513" y="121" type="line" smooth="yes"/>
      <point x="513" y="29"/>
      <point x="554" y="-20"/>
      <point x="646" y="-20" type="curve" smooth="yes"/>
      <point x="734" y="-20"/>
      <point x="755" y="12"/>
      <point x="755" y="119" type="curve" smooth="yes"/>
      <point x="755" y="195" type="line"/>
      <point x="730" y="195" type="line"/>
      <point x="730" y="121" type="line" smooth="yes"/>
      <point x="730" y="45"/>
      <point x="721" y="18"/>
      <point x="681" y="18" type="curve" smooth="yes"/>
      <point x="655" y="18"/>
      <point x="641" y="53"/>
    </contour>
    <contour>
      <point x="513" y="545" type="line"/>
      <point x="513" y="481"/>
      <point x="441" y="448"/>
      <point x="362" y="407" type="curve" smooth="yes"/>
      <point x="249" y="348"/>
      <point x="108.0" y="285.0"/>
      <point x="108" y="156" type="curve" smooth="yes"/>
      <point x="108.0" y="58.000000000000014"/>
      <point x="159.5263157894737" y="-20.0"/>
      <point x="286" y="-20" type="curve" smooth="yes"/>
      <point x="411" y="-20"/>
      <point x="531" y="127"/>
      <point x="531" y="249" type="curve"/>
      <point x="513" y="356" type="line"/>
      <point x="513" y="266" type="line" smooth="yes"/>
      <point x="513" y="160"/>
      <point x="416" y="19"/>
      <point x="316" y="19" type="curve" smooth="yes"/>
      <point x="257.79661016949154" y="19.0"/>
      <point x="248.0" y="92.0"/>
      <point x="248" y="202" type="curve" smooth="yes"/>
      <point x="248.0" y="301.55"/>
      <point x="286.4395042308611" y="339.22750807244574"/>
      <point x="371" y="383" type="curve" smooth="yes"/>
      <point x="466.324441830302" y="432.1673436808926"/>
      <point x="512.1146506130017" y="460.3379175962156"/>
      <point x="531" y="516" type="curve"/>
      <point x="531" y="545" type="line"/>
    </contour>
    <contour>
      <point x="158" y="750" type="line"/>
      <point x="133" y="750" type="line"/>
      <point x="133" y="397" type="line" smooth="yes"/>
      <point x="158" y="397" type="line"/>
    </contour>
    <contour>
      <point x="397.0" y="750.0" type="move" name="top"/>
    </contour>
  </outline>
</glyph>
<glyph name="b" format="1">
  <advance width="815"/>
  <unicode hex="0062"/>
  <outline>
    <contour>
      <point x="677" y="750" type="line"/>
      <point x="271" y="750" type="line"/>
      <point x="271" y="725" type="line"/>
      <point x="677" y="725" type="line"/>
    </contour>
    <contour>
      <point x="429" y="7" type="curve" smooth="yes"/>
      <point x="310" y="7"/>
      <point x="284" y="108"/>
      <point x="284" y="242" type="curve" smooth="yes"/>
      <point x="284" y="457" type="line" smooth="yes"/>
      <point x="284" y="605"/>
      <point x="349" y="644"/>
      <point x="430" y="644" type="curve" smooth="yes"/>
      <point x="540" y="644"/>
      <point x="565" y="587"/>
      <point x="565" y="329" type="curve" smooth="yes"/>
      <point x="565" y="78"/>
      <point x="535" y="7"/>
    </contour>
    <contour>
      <point x="279" y="94" type="line"/>
      <point x="307" y="20"/>
      <point x="355" y="-20"/>
      <point x="428" y="-20" type="curve" smooth="yes"/>
      <point x="614" y="-20"/>
      <point x="705" y="104"/>
      <point x="705" y="326" type="curve" smooth="yes"/>
      <point x="705" y="548"/>
      <point x="614" y="671"/>
      <point x="428" y="671" type="curve" smooth="yes"/>
      <point x="329" y="671"/>
      <point x="294" y="608"/>
      <point x="284" y="575" type="curve"/>
      <point x="284" y="750" type="line"/>
      <point x="65" y="750" type="line"/>
      <point x="65" y="725" type="line"/>
      <point x="156" y="725" type="line"/>
      <point x="156" y="-20" type="line"/>
      <point x="180" y="-20" type="line"/>
      <point x="294" y="103" type="line"/>
    </contour>
  </outline>
</glyph>
<glyph name="c" format="1">
  <advance width="770"/>
  <unicode hex="0063"/>
  <outline>
    <contour>
      <point x="660" y="421" type="line"/>
      <point x="660" y="750" type="line"/>
      <point x="635" y="750" type="line"/>
      <point x="635" y="421" type="line"/>
    </contour>
    <contour>
      <point x="655" y="311" type="line"/>
      <point x="655.0" y="105.0"/>
      <point x="564.3448275862069" y="9.0"/>
      <point x="416" y="9" type="curve" smooth="yes"/>
      <point x="274.0526315789474" y="9.0"/>
      <point x="230.0" y="110.0"/>
      <point x="230" y="367" type="curve" smooth="yes"/>
      <point x="230.0" y="640.0"/>
      <point x="270.9157088122605" y="743.0"/>
      <point x="411" y="743" type="curve" smooth="yes"/>
      <point x="562.0526315789474" y="743.0"/>
      <point x="635" y="629"/>
      <point x="635" y="421" type="curve"/>
      <point x="660" y="421" type="line"/>
      <point x="660" y="643"/>
      <point x="573.6363636363636" y="770.0"/>
      <point x="410" y="770" type="curve" smooth="yes"/>
      <point x="189.20000000000002" y="770.0"/>
      <point x="90.0" y="627.0"/>
      <point x="90" y="368" type="curve" smooth="yes"/>
      <point x="90.0" y="116.0"/>
      <point x="193.58128078817734" y="-20.0"/>
      <point x="416" y="-20" type="curve" smooth="yes"/>
      <point x="583.3023255813954" y="-20.0"/>
      <point x="680.0" y="96.0"/>
      <point x="680" y="311" type="curve"/>
    </contour>
    <contour>
      <point x="416" y="0" type="move" name="bottom"/>
    </contour>
    <contour>
      <point x="414.0" y="750.0" type="move" name="top"/>
    </contour>
  </outline>
</glyph>
<glyph name="d" format="1">
  <advance width="830"/>
  <unicode hex="0064"/>
  <outline>
    <contour>
      <point x="143" y="725" type="line"/>
      <point x="537" y="725" type="line"/>
      <point x="537" y="750" type="line"/>
      <point x="143" y="750" type="line"/>
    </contour>
    <contour>
      <point x="377" y="7" type="curve"/>
      <point x="273" y="7"/>
      <point x="242" y="78"/>
      <point x="242" y="329" type="curve" smooth="yes"/>
      <point x="242" y="587"/>
      <point x="266" y="644"/>
      <point x="376" y="644" type="curve" smooth="yes"/>
      <point x="459" y="644"/>
      <point x="524" y="605"/>
      <point x="524" y="457" type="curve" smooth="yes"/>
      <point x="524" y="242" type="line" smooth="yes"/>
      <point x="524" y="108"/>
      <point x="497" y="7"/>
    </contour>
    <contour>
      <point x="526" y="93" type="line"/>
      <point x="526" y="-2"/>
      <point x="575" y="-20"/>
      <point x="658" y="-20" type="curve" smooth="yes"/>
      <point x="730" y="-20"/>
      <point x="747" y="12"/>
      <point x="747" y="118" type="curve" smooth="yes"/>
      <point x="747" y="194" type="line"/>
      <point x="722" y="194" type="line"/>
      <point x="722" y="120" type="line" smooth="yes"/>
      <point x="722" y="45"/>
      <point x="715" y="18"/>
      <point x="685" y="18" type="curve" smooth="yes"/>
      <point x="662" y="18"/>
      <point x="652" y="33"/>
      <point x="652" y="98" type="curve" smooth="yes"/>
      <point x="652" y="725" type="line"/>
      <point x="751" y="725" type="line"/>
      <point x="751" y="750" type="line"/>
      <point x="524" y="750" type="line"/>
      <point x="524" y="577" type="line"/>
      <point x="514" y="607"/>
      <point x="479" y="671"/>
      <point x="378" y="671" type="curve" smooth="yes"/>
      <point x="194" y="671"/>
      <point x="102" y="548"/>
      <point x="102" y="326" type="curve" smooth="yes"/>
      <point x="102" y="104"/>
      <point x="194" y="-20"/>
      <point x="378" y="-20" type="curve" smooth="yes"/>
      <point x="467" y="-20"/>
      <point x="533" y="40"/>
      <point x="545" y="181" type="curve"/>
      <point x="534" y="186" type="line"/>
    </contour>
  </outline>
</glyph>
<glyph name="e" format="1">
  <advance width="790.0292281182195"/>
  <unicode hex="0065"/>
  <outline>
    <contour>
      <point x="673" y="282" type="line"/>
      <point x="673.0" y="96.0"/>
      <point x="579.5655430711611" y="9.0"/>
      <point x="426" y="9" type="curve" smooth="yes"/>
      <point x="276.2777777777778" y="9.0"/>
      <point x="230.0" y="110.0"/>
      <point x="230" y="367" type="curve" smooth="yes"/>
      <point x="230.0" y="640.0"/>
      <point x="270.94505494505495" y="743.0"/>
      <point x="392" y="743" type="curve"/>
      <point x="519.7872340425532" y="743.0"/>
      <point x="561.9999900099617" y="634.9985814145607"/>
      <point x="560" y="351" type="curve"/>
      <point x="700" y="351" type="line"/>
      <point x="701.9999935320268" y="620.9991268236118"/>
      <point x="601.3829787234042" y="770.0"/>
      <point x="391" y="770" type="curve"/>
      <point x="190.33333333333334" y="770.0"/>
      <point x="90.0" y="627.0"/>
      <point x="90" y="368" type="curve" smooth="yes"/>
      <point x="90.0" y="116.0"/>
      <point x="196.65168539325845" y="-20.0"/>
      <point x="426" y="-20" type="curve" smooth="yes"/>
      <point x="599.3469387755102" y="-20.0"/>
      <point x="700.0" y="86.0"/>
      <point x="700" y="282" type="curve"/>
    </contour>
    <contour>
      <point x="586" y="378" type="curve"/>
      <point x="206" y="378" type="line"/>
      <point x="208" y="351" type="line"/>
      <point x="586" y="351" type="line"/>
      <point x="586" y="351"/>
      <point x="586" y="378"/>
    </contour>
    <contour>
      <point x="394" y="750" type="move" name="top"/>
    </contour>
  </outline>
</glyph>
<glyph name="f" format="1">
  <advance width="671"/>
  <unicode hex="0066"/>
  <outline>
    <contour>
      <point x="520" y="214" type="line"/>
      <point x="520" y="189" type="line"/>
      <point x="70" y="189" type="line"/>
      <point x="70" y="214" type="line"/>
    </contour>
    <contour>
      <point x="71" y="0" type="line"/>
      <point x="71" y="25" type="line"/>
      <point x="520" y="25" type="line"/>
      <point x="520" y="0" type="line"/>
    </contour>
    <contour>
      <point x="563" y="586" type="curve" smooth="yes"/>
      <point x="563" y="694"/>
      <point x="502" y="743"/>
      <point x="423" y="743" type="curve" smooth="yes"/>
      <point x="328" y="743"/>
      <point x="298" y="668"/>
      <point x="298" y="443" type="curve" smooth="yes"/>
      <point x="298" y="0" type="line"/>
      <point x="170" y="0" type="line"/>
      <point x="170" y="443" type="line" smooth="yes"/>
      <point x="170" y="663"/>
      <point x="252" y="770"/>
      <point x="421" y="770" type="curve" smooth="yes"/>
      <point x="528" y="770"/>
      <point x="591" y="702"/>
      <point x="591" y="586" type="curve" smooth="yes"/>
      <point x="591" y="367"/>
      <point x="304" y="403"/>
      <point x="297" y="208" type="curve"/>
      <point x="281" y="226" type="line"/>
      <point x="291" y="275" type="line"/>
      <point x="342.68304208549426" y="418.347305406937"/>
      <point x="563" y="411"/>
    </contour>
  </outline>
</glyph>
<glyph name="g" format="1">
  <advance width="743"/>
  <unicode hex="0067"/>
  <outline>
    <contour>
      <point x="370" y="743" type="curve" smooth="yes"/>
      <point x="489" y="743"/>
      <point x="515" y="642.4279661016949"/>
      <point x="515" y="508" type="curve" smooth="yes"/>
      <point x="515" y="463" type="line" smooth="yes"/>
      <point x="515" y="315"/>
      <point x="450" y="276"/>
      <point x="369" y="276" type="curve" smooth="yes"/>
      <point x="258.6521739130435" y="276.0"/>
      <point x="234.0" y="317.0"/>
      <point x="234" y="501" type="curve" smooth="yes"/>
      <point x="234.0" y="690.0"/>
      <point x="264.48275862068965" y="743.0"/>
    </contour>
    <contour>
      <point x="326" y="-20" type="curve" smooth="yes"/>
      <point x="542" y="-20"/>
      <point x="643" y="47"/>
      <point x="643" y="266" type="curve" smooth="yes"/>
      <point x="643" y="770" type="line"/>
      <point x="619" y="770" type="line"/>
      <point x="518" y="661" type="line"/>
      <point x="491.21383460629903" y="731.4376941834358"/>
      <point x="444.0" y="770.0"/>
      <point x="371" y="770" type="curve" smooth="yes"/>
      <point x="185.0" y="770.0"/>
      <point x="94.0" y="675.3558052434457"/>
      <point x="94" y="504" type="curve" smooth="yes"/>
      <point x="94" y="340"/>
      <point x="185" y="249"/>
      <point x="371" y="249" type="curve" smooth="yes"/>
      <point x="471" y="249"/>
      <point x="505" y="314"/>
      <point x="515" y="343" type="curve"/>
      <point x="515" y="251" type="line" smooth="yes"/>
      <point x="515" y="43"/>
      <point x="467" y="7"/>
      <point x="326" y="7" type="curve" smooth="yes"/>
      <point x="141" y="7"/>
      <point x="112" y="44"/>
      <point x="112" y="122" type="curve" smooth="yes"/>
      <point x="112" y="220"/>
      <point x="250" y="249"/>
      <point x="371" y="249" type="curve"/>
      <point x="354" y="272" type="line"/>
      <point x="189" y="266"/>
      <point x="85" y="231"/>
      <point x="85" y="122" type="curve" smooth="yes"/>
      <point x="85" y="36"/>
      <point x="117" y="-20"/>
    </contour>
  </outline>
</glyph>
<glyph name="h" format="1">
  <advance width="820"/>
  <unicode hex="0068"/>
  <outline>
    <contour>
      <point x="312" y="433" type="line" smooth="yes"/>
      <point x="312" y="665.969696969697"/>
      <point x="337.97938144329896" y="743.0"/>
      <point x="456" y="743" type="curve" smooth="yes"/>
      <point x="560.9409282700421" y="743.0"/>
      <point x="643.0" y="703.0"/>
      <point x="643" y="598" type="curve" smooth="yes"/>
      <point x="643.0" y="473.0"/>
      <point x="499.99267706935774" y="439.7412341674931"/>
      <point x="389" y="395" type="curve" smooth="yes"/>
      <point x="344.3212868921163" y="376.72234463768393"/>
      <point x="321" y="346"/>
      <point x="312" y="313" type="curve"/>
    </contour>
    <contour>
      <point x="184" y="25" type="line"/>
      <point x="80" y="25" type="line"/>
      <point x="80" y="0" type="line"/>
      <point x="760" y="0" type="line"/>
      <point x="760" y="25" type="line"/>
      <point x="655" y="25" type="line"/>
      <point x="655" y="130" type="line" smooth="yes"/>
      <point x="655" y="303.04477611940297"/>
      <point x="569.3726937269373" y="378.0"/>
      <point x="434" y="378" type="curve" smooth="yes"/>
      <point x="425" y="378"/>
      <point x="416" y="377"/>
      <point x="405" y="376" type="curve"/>
      <point x="524.962127068859" y="421.74095492553613"/>
      <point x="670.0" y="456.0"/>
      <point x="670" y="598" type="curve" smooth="yes"/>
      <point x="670.0" y="708.0"/>
      <point x="589.609022556391" y="770.0"/>
      <point x="454" y="770" type="curve" smooth="yes"/>
      <point x="266.6875" y="770.0"/>
      <point x="184" y="659.5546218487395"/>
      <point x="184" y="433" type="curve" smooth="yes"/>
    </contour>
    <contour>
      <point x="312" y="25" type="line"/>
      <point x="312" y="180" type="line"/>
      <point x="312.0" y="311.0"/>
      <point x="343.8387096774194" y="353.0"/>
      <point x="417" y="353" type="curve" smooth="yes"/>
      <point x="505.6875" y="353.0"/>
      <point x="527" y="311.9473684210526"/>
      <point x="527" y="145" type="curve" smooth="yes"/>
      <point x="527" y="25" type="line"/>
    </contour>
  </outline>
</glyph>
<glyph name="i" format="1">
  <advance width="530"/>
  <unicode hex="0069"/>
  <outline>
    <contour>
      <point x="265" y="623" type="curve" smooth="yes"/>
      <point x="314" y="623"/>
      <point x="354" y="663"/>
      <point x="354" y="711" type="curve" smooth="yes"/>
      <point x="354" y="760"/>
      <point x="314" y="800"/>
      <point x="265" y="800" type="curve" smooth="yes"/>
      <point x="216" y="800"/>
      <point x="176" y="760"/>
      <point x="176" y="711" type="curve" smooth="yes"/>
      <point x="176" y="663"/>
      <point x="216" y="623"/>
    </contour>
    <component base="dotlessi"/>
  </outline>
</glyph>
<glyph name="j" format="1">
  <advance width="564"/>
  <unicode hex="006A"/>
  <outline>
    <contour>
      <point x="378" y="623" type="curve" smooth="yes"/>
      <point x="427" y="623"/>
      <point x="467" y="663"/>
      <point x="467" y="711" type="curve" smooth="yes"/>
      <point x="467" y="760"/>
      <point x="427" y="800"/>
      <point x="378" y="800" type="curve" smooth="yes"/>
      <point x="329" y="800"/>
      <point x="289" y="760"/>
      <point x="289" y="711" type="curve" smooth="yes"/>
      <point x="289" y="663"/>
      <point x="329" y="623"/>
    </contour>
    <component base="dotlessj"/>
  </outline>
</glyph>
<glyph name="k" format="1">
  <advance width="840"/>
  <unicode hex="006B"/>
  <outline>
    <contour>
      <point x="312" y="433" type="line" smooth="yes"/>
      <point x="312" y="666"/>
      <point x="338" y="743"/>
      <point x="456" y="743" type="curve" smooth="yes"/>
      <point x="572.2299465240642" y="743.0"/>
      <point x="663.0" y="703.0"/>
      <point x="663" y="598" type="curve" smooth="yes"/>
      <point x="663.0" y="473.0"/>
      <point x="507.5064604336436" y="443.0431596352609"/>
      <point x="389" y="395" type="curve" smooth="yes"/>
      <point x="344" y="377"/>
      <point x="321" y="346"/>
      <point x="312" y="313" type="curve"/>
    </contour>
    <contour>
      <point x="551" y="25" type="line"/>
      <point x="312.0" y="25.0" type="line"/>
      <point x="312.0" y="180.0" type="line"/>
      <point x="312.0" y="311.0"/>
      <point x="345" y="353"/>
      <point x="404" y="353" type="curve"/>
      <point x="458.96610169491527" y="353.0"/>
      <point x="473.0" y="326.0"/>
      <point x="473" y="206" type="curve" smooth="yes"/>
      <point x="473" y="125"/>
      <point x="458" y="99"/>
      <point x="425" y="99" type="curve" smooth="yes"/>
      <point x="398.1914893617021" y="99.0"/>
      <point x="383.0" y="123.0"/>
      <point x="383" y="173" type="curve" smooth="yes"/>
      <point x="383.0" y="230.0"/>
      <point x="404.4651162790698" y="252.0"/>
      <point x="454.0" y="252.0" type="curve" smooth="yes"/>
      <point x="539.6623376623377" y="252.0"/>
      <point x="551" y="245.0"/>
      <point x="551" y="145" type="curve" smooth="yes"/>
    </contour>
    <contour>
      <point x="780" y="0" type="line"/>
      <point x="780" y="25" type="line"/>
      <point x="679" y="25" type="line"/>
      <point x="679" y="78" type="line" smooth="yes"/>
      <point x="679" y="219.0"/>
      <point x="603" y="276"/>
      <point x="454" y="276" type="curve" smooth="yes"/>
      <point x="391" y="276"/>
      <point x="355.0" y="244.0"/>
      <point x="355" y="172" type="curve" smooth="yes"/>
      <point x="355.0" y="111.0"/>
      <point x="385.8" y="72.0"/>
      <point x="425" y="72" type="curve" smooth="yes"/>
      <point x="471" y="72"/>
      <point x="501" y="110"/>
      <point x="501" y="203" type="curve" smooth="yes"/>
      <point x="501.0" y="336.0"/>
      <point x="485.61386138613864" y="376.0"/>
      <point x="390" y="376" type="curve"/>
      <point x="397" y="374" type="line"/>
      <point x="527.8629276396547" y="424.00453332572175"/>
      <point x="690.0" y="455.0"/>
      <point x="690" y="598" type="curve" smooth="yes"/>
      <point x="690.0" y="708.0"/>
      <point x="602.5925925925926" y="770.0"/>
      <point x="454" y="770" type="curve" smooth="yes"/>
      <point x="267" y="770"/>
      <point x="184" y="660"/>
      <point x="184" y="433" type="curve" smooth="yes"/>
      <point x="184" y="25" type="line"/>
      <point x="80" y="25" type="line"/>
      <point x="80" y="0" type="line"/>
    </contour>
  </outline>
</glyph>
<glyph name="l" format="1">
  <advance width="555"/>
  <unicode hex="006C"/>
  <outline>
    <contour>
      <point x="449" y="25" type="line"/>
      <point x="447" y="0" type="line"/>
      <point x="70" y="0" type="line"/>
      <point x="70" y="25" type="line"/>
    </contour>
    <contour>
      <point x="176" y="20" type="line"/>
      <point x="176" y="503" type="line" smooth="yes"/>
      <point x="176" y="695.0"/>
      <point x="237.0" y="770.0"/>
      <point x="377" y="770" type="curve" smooth="yes"/>
      <point x="444.0" y="770.0"/>
      <point x="480" y="720"/>
      <point x="480" y="642" type="curve" smooth="yes"/>
      <point x="480.0" y="451.43543046357615"/>
      <point x="311" y="366"/>
      <point x="304" y="75" type="curve"/>
      <point x="288" y="56" type="line"/>
      <point x="294" y="187" type="line"/>
      <point x="339.9792101249626" y="422.8933389019821"/>
      <point x="453.0" y="489.0"/>
      <point x="453" y="642" type="curve" smooth="yes"/>
      <point x="453" y="711"/>
      <point x="421.0" y="743.0"/>
      <point x="376" y="743" type="curve" smooth="yes"/>
      <point x="317.0" y="743.0"/>
      <point x="304" y="696.0"/>
      <point x="304" y="503" type="curve" smooth="yes"/>
      <point x="304" y="20" type="line"/>
    </contour>
  </outline>
</glyph>
<glyph name="m" format="1">
  <advance width="924"/>
  <unicode hex="006D"/>
  <outline>
    <contour>
      <point x="534" y="532" type="curve" smooth="yes"/>
      <point x="534" y="0" type="line"/>
      <point x="414" y="0" type="line"/>
      <point x="414" y="532" type="line" smooth="yes"/>
      <point x="414" y="684"/>
      <point x="399" y="734"/>
      <point x="358" y="734" type="curve" smooth="yes"/>
      <point x="312" y="734"/>
      <point x="274" y="650"/>
      <point x="274" y="452" type="curve"/>
      <point x="246" y="524" type="line"/>
      <point x="261" y="709"/>
      <point x="301" y="770"/>
      <point x="384" y="770" type="curve" smooth="yes"/>
      <point x="481" y="770"/>
      <point x="534" y="680"/>
    </contour>
    <contour>
      <point x="274" y="0" type="line"/>
      <point x="154" y="0" type="line"/>
      <point x="154" y="750" type="line"/>
      <point x="262" y="750" type="line"/>
      <point x="262" y="587" type="line"/>
      <point x="274" y="595" type="line"/>
    </contour>
    <contour>
      <point x="739" y="0" type="line"/>
      <point x="70" y="0" type="line"/>
      <point x="70" y="25" type="line"/>
      <point x="739" y="25" type="line"/>
    </contour>
    <contour>
      <point x="70" y="725" type="line"/>
      <point x="70" y="750" type="line"/>
      <point x="176" y="750" type="line"/>
      <point x="176" y="725" type="line"/>
    </contour>
    <contour>
      <point x="794" y="532" type="curve" smooth="yes"/>
      <point x="794" y="0" type="line"/>
      <point x="674" y="0" type="line"/>
      <point x="674" y="532" type="line" smooth="yes"/>
      <point x="674" y="685"/>
      <point x="656" y="734"/>
      <point x="610" y="734" type="curve" smooth="yes"/>
      <point x="567" y="734"/>
      <point x="534" y="649"/>
      <point x="534" y="452" type="curve"/>
      <point x="505" y="524" type="line"/>
      <point x="521" y="710"/>
      <point x="554" y="770"/>
      <point x="635" y="770" type="curve" smooth="yes"/>
      <point x="738" y="770"/>
      <point x="794" y="680"/>
    </contour>
    <contour>
      <point x="874" y="25" type="line"/>
      <point x="874" y="0" type="line"/>
      <point x="772" y="0" type="line"/>
      <point x="772" y="25" type="line"/>
    </contour>
  </outline>
</glyph>
<glyph name="n" format="1">
  <advance width="880"/>
  <unicode hex="006E"/>
  <outline>
    <contour>
      <point x="691" y="467" type="curve" smooth="yes"/>
      <point x="691" y="0" type="line"/>
      <point x="563" y="0" type="line"/>
      <point x="563" y="426" type="line" smooth="yes"/>
      <point x="563" y="677.0"/>
      <point x="541.3157894736842" y="737.0"/>
      <point x="460" y="737" type="curve" smooth="yes"/>
      <point x="356.5" y="737.0"/>
      <point x="322.0" y="645.0"/>
      <point x="322" y="431" type="curve"/>
      <point x="302" y="538" type="line"/>
      <point x="314.00035733451585" y="705.0049729053458"/>
      <point x="380.2022471910112" y="770.0"/>
      <point x="476" y="770" type="curve" smooth="yes"/>
      <point x="623" y="770"/>
      <point x="691" y="702.0"/>
    </contour>
    <contour>
      <point x="322" y="0" type="line"/>
      <point x="194" y="0" type="line"/>
      <point x="194" y="750" type="line"/>
      <point x="312" y="750" type="line"/>
      <point x="312" y="585" type="line"/>
      <point x="322" y="565" type="line"/>
    </contour>
    <contour>
      <point x="246" y="0" type="line"/>
      <point x="90" y="0" type="line"/>
      <point x="90" y="25" type="line"/>
      <point x="246" y="25" type="line"/>
    </contour>
    <contour>
      <point x="90" y="725" type="line"/>
      <point x="90" y="750" type="line"/>
      <point x="246" y="750" type="line"/>
      <point x="246" y="725" type="line"/>
    </contour>
    <contour>
      <point x="405" y="25" type="line"/>
      <point x="405" y="0" type="line"/>
      <point x="299" y="0" type="line"/>
      <point x="299" y="25" type="line"/>
    </contour>
    <contour>
      <point x="623" y="0" type="line"/>
      <point x="475" y="0" type="line"/>
      <point x="475" y="25" type="line"/>
      <point x="623" y="25" type="line"/>
    </contour>
    <contour>
      <point x="795" y="25" type="line"/>
      <point x="795" y="0" type="line"/>
      <point x="660" y="0" type="line"/>
      <point x="660" y="25" type="line"/>
    </contour>
  </outline>
</glyph>
<glyph name="o" format="1">
  <advance width="830"/>
  <unicode hex="006F"/>
  <outline>
    <component base="O"/>
    <contour>
      <point x="425" y="750" type="move" name="top"/>
    </contour>
  </outline>
</glyph>
<glyph name="p" format="1">
  <advance width="854"/>
  <unicode hex="0070"/>
  <outline>
    <contour>
      <point x="469" y="743" type="curve"/>
      <point x="573" y="743"/>
      <point x="604" y="672"/>
      <point x="604" y="421" type="curve" smooth="yes"/>
      <point x="604" y="163"/>
      <point x="580" y="106"/>
      <point x="470" y="106" type="curve" smooth="yes"/>
      <point x="387" y="106"/>
      <point x="322" y="145"/>
      <point x="322" y="293" type="curve" smooth="yes"/>
      <point x="322" y="508" type="line" smooth="yes"/>
      <point x="322" y="642"/>
      <point x="349" y="743"/>
    </contour>
    <contour>
      <point x="301" y="569" type="curve"/>
      <point x="312" y="564" type="line"/>
      <point x="312" y="750" type="line"/>
      <point x="194" y="750" type="line"/>
      <point x="194" y="25" type="line"/>
      <point x="95" y="25" type="line"/>
      <point x="95" y="0" type="line"/>
      <point x="322" y="0" type="line"/>
      <point x="322" y="173" type="line"/>
      <point x="332" y="143"/>
      <point x="367" y="79"/>
      <point x="468" y="79" type="curve" smooth="yes"/>
      <point x="652" y="79"/>
      <point x="744" y="202"/>
      <point x="744" y="424" type="curve" smooth="yes"/>
      <point x="744" y="646"/>
      <point x="652" y="770"/>
      <point x="468" y="770" type="curve" smooth="yes"/>
      <point x="379" y="770"/>
      <point x="313" y="710"/>
    </contour>
    <contour>
      <point x="273" y="0" type="line"/>
      <point x="529" y="0" type="line"/>
      <point x="529" y="25" type="line"/>
      <point x="273" y="25" type="line"/>
    </contour>
    <contour>
      <point x="90" y="725" type="line"/>
      <point x="246" y="725" type="line"/>
      <point x="246" y="750" type="line"/>
      <point x="90" y="750" type="line"/>
    </contour>
  </outline>
</glyph>
<glyph name="q" format="1">
  <advance width="815"/>
  <unicode hex="0071"/>
  <outline>
    <contour>
      <point x="138" y="0" type="line"/>
      <point x="544" y="0" type="line"/>
      <point x="544" y="25" type="line"/>
      <point x="138" y="25" type="line"/>
    </contour>
    <contour>
      <point x="386" y="743" type="curve" smooth="yes"/>
      <point x="505" y="743"/>
      <point x="531" y="642"/>
      <point x="531" y="508" type="curve" smooth="yes"/>
      <point x="531" y="293" type="line" smooth="yes"/>
      <point x="531" y="145"/>
      <point x="466" y="106"/>
      <point x="385" y="106" type="curve" smooth="yes"/>
      <point x="275" y="106"/>
      <point x="250" y="163"/>
      <point x="250" y="421" type="curve" smooth="yes"/>
      <point x="250" y="672"/>
      <point x="280" y="743"/>
    </contour>
    <contour>
      <point x="536" y="656" type="line"/>
      <point x="508" y="730"/>
      <point x="460" y="770"/>
      <point x="387" y="770" type="curve" smooth="yes"/>
      <point x="201" y="770"/>
      <point x="110" y="646"/>
      <point x="110" y="424" type="curve" smooth="yes"/>
      <point x="110" y="202"/>
      <point x="201" y="79"/>
      <point x="387" y="79" type="curve" smooth="yes"/>
      <point x="486" y="79"/>
      <point x="521" y="142"/>
      <point x="531" y="175" type="curve"/>
      <point x="531" y="0" type="line"/>
      <point x="750" y="0" type="line"/>
      <point x="750" y="25" type="line"/>
      <point x="659" y="25" type="line"/>
      <point x="659" y="770" type="line"/>
      <point x="635" y="770" type="line"/>
      <point x="521" y="647" type="line"/>
    </contour>
  </outline>
</glyph>
<glyph name="r" format="1">
  <advance width="672"/>
  <unicode hex="0072"/>
  <outline>
    <contour>
      <point x="600" y="467" type="curve"/>
      <point x="575" y="466" type="line"/>
      <point x="575.0" y="688.0"/>
      <point x="538.7575757575758" y="741.0"/>
      <point x="460" y="741" type="curve" smooth="yes"/>
      <point x="364.5057471264368" y="741.0"/>
      <point x="336.0" y="648.0"/>
      <point x="336" y="431" type="curve"/>
      <point x="311" y="502" type="line"/>
      <point x="318" y="706"/>
      <point x="372" y="770"/>
      <point x="460" y="770" type="curve" smooth="yes"/>
      <point x="557" y="770"/>
      <point x="600.0" y="702.0"/>
    </contour>
    <contour>
      <point x="336" y="0" type="line"/>
      <point x="208" y="0" type="line"/>
      <point x="208" y="750" type="line"/>
      <point x="326" y="750" type="line"/>
      <point x="326" y="585" type="line"/>
      <point x="336" y="565" type="line"/>
    </contour>
    <contour>
      <point x="260" y="0" type="line"/>
      <point x="90" y="0" type="line"/>
      <point x="90" y="25" type="line"/>
      <point x="260" y="25" type="line"/>
    </contour>
    <contour>
      <point x="90" y="725" type="line"/>
      <point x="90" y="750" type="line"/>
      <point x="260" y="750" type="line"/>
      <point x="260" y="725" type="line"/>
    </contour>
    <contour>
      <point x="479" y="25" type="line"/>
      <point x="479" y="0" type="line"/>
      <point x="313" y="0" type="line"/>
      <point x="313" y="25" type="line"/>
    </contour>
    <contour>
      <point x="600" y="750" type="line"/>
      <point x="600" y="437" type="line"/>
      <point x="575" y="437" type="line" smooth="yes"/>
      <point x="575" y="750" type="line"/>
    </contour>
  </outline>
</glyph>
<glyph name="s" format="1">
  <advance width="726"/>
  <unicode hex="0073"/>
  <outline>
    <contour>
      <point x="551" y="750" type="line"/>
      <point x="526" y="750" type="line"/>
      <point x="526" y="507" type="line" smooth="yes"/>
      <point x="551" y="507" type="line"/>
    </contour>
    <contour>
      <point x="100" y="199" type="line" smooth="yes"/>
      <point x="100" y="51.02702702702703"/>
      <point x="184.37860082304528" y="-20.0"/>
      <point x="333" y="-20" type="curve" smooth="yes"/>
      <point x="487" y="-20"/>
      <point x="616" y="46"/>
      <point x="616" y="180" type="curve" smooth="yes"/>
      <point x="616.0" y="289.0"/>
      <point x="560" y="374"/>
      <point x="414" y="432" type="curve" smooth="yes"/>
      <point x="284" y="484"/>
      <point x="245.0" y="516.0"/>
      <point x="245" y="610" type="curve" smooth="yes"/>
      <point x="245" y="707"/>
      <point x="280" y="743"/>
      <point x="352" y="743" type="curve" smooth="yes"/>
      <point x="441.0" y="743.0"/>
      <point x="526" y="665.3937007874016"/>
      <point x="526" y="519" type="curve" smooth="yes"/>
      <point x="526" y="507" type="line"/>
      <point x="551" y="507" type="line"/>
      <point x="551.0" y="691.0102389078498"/>
      <point x="450.0" y="770.0"/>
      <point x="337" y="770" type="curve" smooth="yes"/>
      <point x="237" y="770"/>
      <point x="125" y="701"/>
      <point x="125" y="569" type="curve" smooth="yes"/>
      <point x="125.0" y="455.0"/>
      <point x="181" y="393"/>
      <point x="328" y="331" type="curve" smooth="yes"/>
      <point x="445" y="281"/>
      <point x="487.0" y="234.0"/>
      <point x="487" y="132" type="curve"/>
      <point x="487" y="54"/>
      <point x="446" y="7"/>
      <point x="330" y="7" type="curve" smooth="yes"/>
      <point x="201.27906976744185" y="7.0"/>
      <point x="125" y="65.03418803418805"/>
      <point x="125" y="201" type="curve" smooth="yes"/>
      <point x="125" y="263" type="line"/>
      <point x="100" y="263" type="line"/>
    </contour>
    <contour>
      <point x="342" y="750" type="move" name="top"/>
    </contour>
  </outline>
</glyph>
<glyph name="t" format="1">
  <advance width="568"/>
  <unicode hex="0074"/>
  <outline>
    <contour>
      <point x="166" y="226" type="curve"/>
      <point x="166" y="590" type="line"/>
      <point x="40" y="590" type="line"/>
      <point x="40" y="617" type="line"/>
      <point x="117" y="617" type="line"/>
      <point x="268" y="770" type="line"/>
      <point x="293" y="770" type="line"/>
      <point x="293" y="226" type="line" smooth="yes"/>
      <point x="293" y="65"/>
      <point x="313" y="7"/>
      <point x="377" y="7" type="curve" smooth="yes"/>
      <point x="423" y="7"/>
      <point x="477" y="55"/>
      <point x="477" y="179" type="curve"/>
      <point x="503" y="179" type="line"/>
      <point x="503" y="33"/>
      <point x="431" y="-20"/>
      <point x="351" y="-20" type="curve" smooth="yes"/>
      <point x="225" y="-20"/>
      <point x="166" y="64"/>
    </contour>
    <contour>
      <point x="243" y="617" type="line"/>
      <point x="513" y="617" type="line"/>
      <point x="513" y="590" type="line"/>
      <point x="243" y="590" type="line"/>
    </contour>
  </outline>
</glyph>
<glyph name="u" format="1">
  <advance width="862"/>
  <unicode hex="0075"/>
  <outline>
    <contour>
      <point x="164" y="283" type="curve" smooth="yes"/>
      <point x="164" y="750" type="line"/>
      <point x="292" y="750" type="line"/>
      <point x="292" y="324" type="line" smooth="yes"/>
      <point x="292" y="73"/>
      <point x="314" y="13"/>
      <point x="395" y="13" type="curve" smooth="yes"/>
      <point x="498" y="13"/>
      <point x="533" y="105"/>
      <point x="533" y="319" type="curve"/>
      <point x="553" y="212" type="line"/>
      <point x="541" y="45"/>
      <point x="475" y="-20"/>
      <point x="379" y="-20" type="curve" smooth="yes"/>
      <point x="232" y="-20"/>
      <point x="164" y="48"/>
    </contour>
    <contour>
      <point x="246" y="725" type="line"/>
      <point x="246" y="750" type="line"/>
      <point x="556" y="750" type="line"/>
      <point x="556" y="725" type="line"/>
    </contour>
    <contour>
      <point x="60" y="725" type="line"/>
      <point x="60" y="750" type="line"/>
      <point x="195" y="750" type="line"/>
      <point x="195" y="725" type="line"/>
    </contour>
    <contour>
      <point x="543" y="138" type="curve"/>
      <point x="543" y="165" type="line"/>
      <point x="533" y="185" type="line"/>
      <point x="533" y="750" type="line"/>
      <point x="661" y="750" type="line"/>
      <point x="661" y="119" type="line"/>
      <point x="661" y="49"/>
      <point x="675" y="18"/>
      <point x="705" y="18" type="curve" smooth="yes"/>
      <point x="737" y="18"/>
      <point x="745" y="45"/>
      <point x="745" y="121" type="curve" smooth="yes"/>
      <point x="745" y="195" type="line"/>
      <point x="770" y="195" type="line"/>
      <point x="770" y="119" type="line" smooth="yes"/>
      <point x="770" y="12"/>
      <point x="750" y="-20"/>
      <point x="667" y="-20" type="curve" smooth="yes"/>
      <point x="585" y="-20"/>
      <point x="543" y="9"/>
    </contour>
    <contour>
      <point x="394" y="750" type="move" name="top"/>
    </contour>
  </outline>
</glyph>
<glyph name="v" format="1">
  <advance width="775"/>
  <unicode hex="0076"/>
  <outline>
    <contour>
      <point x="287" y="750" type="line"/>
      <point x="356" y="750" type="line"/>
      <point x="356" y="725" type="line"/>
      <point x="287" y="725" type="line"/>
    </contour>
    <contour>
      <point x="60" y="725" type="line"/>
      <point x="60" y="750" type="line"/>
      <point x="159" y="750" type="line"/>
      <point x="159" y="725" type="line"/>
    </contour>
    <contour>
      <point x="528" y="-20"/>
      <point x="634" y="271"/>
      <point x="634" y="558" type="curve" smooth="yes"/>
      <point x="634" y="691"/>
      <point x="575" y="770"/>
      <point x="494" y="770" type="curve" smooth="yes"/>
      <point x="409" y="770"/>
      <point x="354" y="701"/>
      <point x="354" y="601" type="curve" smooth="yes"/>
      <point x="354" y="501"/>
      <point x="405" y="435"/>
      <point x="515" y="435" type="curve" smooth="yes"/>
      <point x="628" y="435"/>
      <point x="720" y="529"/>
      <point x="720" y="750" type="curve"/>
      <point x="691" y="750" type="line"/>
      <point x="697" y="549"/>
      <point x="613" y="463"/>
      <point x="527" y="463" type="curve" smooth="yes"/>
      <point x="419" y="463"/>
      <point x="382" y="513"/>
      <point x="382" y="601" type="curve" smooth="yes"/>
      <point x="382" y="691"/>
      <point x="426" y="742"/>
      <point x="495" y="742" type="curve" smooth="yes"/>
      <point x="562" y="742"/>
      <point x="605" y="673"/>
      <point x="605" y="554" type="curve" smooth="yes"/>
      <point x="605" y="282"/>
      <point x="507" y="24"/>
      <point x="378" y="24" type="curve" smooth="yes"/>
      <point x="302" y="24"/>
      <point x="287" y="44"/>
      <point x="287" y="280" type="curve" smooth="yes"/>
      <point x="287" y="750" type="line"/>
      <point x="159" y="750" type="line"/>
      <point x="159" y="280" type="line" smooth="yes"/>
      <point x="159" y="59"/>
      <point x="225" y="-20"/>
      <point x="343" y="-20" type="curve" smooth="yes"/>
    </contour>
  </outline>
</glyph>
<glyph name="w" format="1">
  <advance width="935"/>
  <unicode hex="0077"/>
  <outline>
    <contour>
      <point x="287" y="750" type="line"/>
      <point x="396" y="750" type="line"/>
      <point x="396" y="725" type="line"/>
      <point x="287" y="725" type="line"/>
    </contour>
    <contour>
      <point x="60" y="725" type="line"/>
      <point x="60" y="750" type="line"/>
      <point x="159" y="750" type="line"/>
      <point x="159" y="725" type="line"/>
    </contour>
    <contour>
      <point x="342" y="376" type="line"/>
      <point x="571" y="376" type="line"/>
      <point x="571" y="404" type="line"/>
      <point x="342" y="404" type="line"/>
    </contour>
    <contour>
      <point x="745" y="488" type="curve" smooth="yes"/>
      <point x="745" y="288"/>
      <point x="745" y="11"/>
      <point x="614" y="11" type="curve" smooth="yes"/>
      <point x="570" y="11"/>
      <point x="571" y="49"/>
      <point x="571" y="201" type="curve" smooth="yes"/>
      <point x="571" y="376" type="line"/>
      <point x="444" y="376" type="line"/>
      <point x="444" y="201" type="line" smooth="yes"/>
      <point x="444" y="62"/>
      <point x="423" y="11"/>
      <point x="360" y="11" type="curve" smooth="yes"/>
      <point x="286" y="11"/>
      <point x="287" y="66"/>
      <point x="287" y="280" type="curve" smooth="yes"/>
      <point x="287" y="750" type="line"/>
      <point x="159" y="750" type="line"/>
      <point x="159" y="280" type="line" smooth="yes"/>
      <point x="159" y="69"/>
      <point x="197" y="-20"/>
      <point x="344" y="-20" type="curve" smooth="yes"/>
      <point x="403" y="-20"/>
      <point x="439" y="1"/>
      <point x="456" y="61" type="curve"/>
      <point x="472" y="4"/>
      <point x="519" y="-20"/>
      <point x="598" y="-20" type="curve" smooth="yes"/>
      <point x="781" y="-20"/>
      <point x="774" y="280"/>
      <point x="774" y="492" type="curve" smooth="yes"/>
      <point x="774" y="684"/>
      <point x="703" y="770"/>
      <point x="604" y="770" type="curve" smooth="yes"/>
      <point x="501" y="770"/>
      <point x="434" y="701"/>
      <point x="434" y="601" type="curve" smooth="yes"/>
      <point x="434" y="501"/>
      <point x="494" y="435"/>
      <point x="625" y="435" type="curve" smooth="yes"/>
      <point x="765" y="435"/>
      <point x="880" y="529"/>
      <point x="880" y="750" type="curve"/>
      <point x="851" y="750" type="line"/>
      <point x="857" y="549"/>
      <point x="749" y="463"/>
      <point x="637" y="463" type="curve" smooth="yes"/>
      <point x="507" y="463"/>
      <point x="462" y="513"/>
      <point x="462" y="601" type="curve" smooth="yes"/>
      <point x="462" y="691"/>
      <point x="517" y="742"/>
      <point x="605" y="742" type="curve" smooth="yes"/>
      <point x="690" y="742"/>
      <point x="745" y="666"/>
    </contour>
  </outline>
</glyph>
<glyph name="x" format="1">
  <advance width="830"/>
  <unicode hex="0078"/>
  <outline>
    <contour>
      <point x="474" y="679"/>
      <point x="412" y="770"/>
      <point x="269" y="770" type="curve" smooth="yes"/>
      <point x="166" y="770"/>
      <point x="97" y="710"/>
      <point x="97" y="513" type="curve"/>
      <point x="124" y="513" type="line"/>
      <point x="124" y="676"/>
      <point x="172" y="737"/>
      <point x="229" y="737" type="curve" smooth="yes"/>
      <point x="294" y="737"/>
      <point x="354" y="623"/>
      <point x="354" y="412" type="curve" smooth="yes"/>
      <point x="354" y="151"/>
      <point x="300" y="8"/>
      <point x="216" y="8" type="curve" smooth="yes"/>
      <point x="130" y="8"/>
      <point x="106" y="119"/>
      <point x="104" y="251" type="curve"/>
      <point x="77" y="251" type="line"/>
      <point x="77" y="124"/>
      <point x="104" y="-20"/>
      <point x="219" y="-20" type="curve" smooth="yes"/>
      <point x="305" y="-20"/>
      <point x="352" y="77"/>
      <point x="382" y="263" type="curve" smooth="yes"/>
      <point x="393" y="333"/>
      <point x="474" y="357"/>
      <point x="474" y="408" type="curve" smooth="yes"/>
    </contour>
    <contour>
      <point x="355" y="408" type="curve" smooth="yes"/>
      <point x="355" y="124"/>
      <point x="424" y="-20"/>
      <point x="574" y="-20" type="curve"/>
      <point x="716" y="-20"/>
      <point x="744" y="124"/>
      <point x="744" y="251" type="curve"/>
      <point x="717" y="251" type="line"/>
      <point x="715" y="127"/>
      <point x="691" y="22"/>
      <point x="603" y="22" type="curve" smooth="yes"/>
      <point x="517" y="22"/>
      <point x="475" y="160"/>
      <point x="475" y="412" type="curve" smooth="yes"/>
      <point x="475" y="627"/>
      <point x="525" y="743"/>
      <point x="592" y="743" type="curve" smooth="yes"/>
      <point x="649" y="743"/>
      <point x="697" y="681"/>
      <point x="697" y="513" type="curve"/>
      <point x="724" y="513" type="line"/>
      <point x="724" y="710"/>
      <point x="657" y="770"/>
      <point x="587" y="770" type="curve" smooth="yes"/>
      <point x="525" y="770"/>
      <point x="477" y="691"/>
      <point x="455" y="573" type="curve" smooth="yes"/>
      <point x="441" y="495"/>
      <point x="355" y="476"/>
    </contour>
  </outline>
</glyph>
<glyph name="y" format="1">
  <advance width="811"/>
  <unicode hex="0079"/>
  <outline>
    <contour>
      <point x="636" y="739" type="line"/>
      <point x="636" y="246" type="line" smooth="yes"/>
      <point x="636" y="67"/>
      <point x="551" y="-20"/>
      <point x="366" y="-20" type="curve" smooth="yes"/>
      <point x="201" y="-20"/>
      <point x="110" y="37"/>
      <point x="110" y="169" type="curve" smooth="yes"/>
      <point x="110" y="323"/>
      <point x="245" y="344"/>
      <point x="363" y="409" type="curve"/>
      <point x="380" y="389" type="line"/>
      <point x="260" y="329"/>
      <point x="137" y="306"/>
      <point x="137" y="169" type="curve" smooth="yes"/>
      <point x="137" y="55"/>
      <point x="217" y="7"/>
      <point x="364" y="7" type="curve" smooth="yes"/>
      <point x="534" y="7"/>
      <point x="609" y="75"/>
      <point x="609" y="246" type="curve" smooth="yes"/>
      <point x="609" y="739" type="line"/>
    </contour>
    <contour>
      <point x="731" y="750" type="line"/>
      <point x="731" y="725" type="line"/>
      <point x="436" y="725" type="line"/>
      <point x="436" y="750" type="line"/>
    </contour>
    <contour>
      <point x="134" y="750" type="line"/>
      <point x="301" y="750" type="line"/>
      <point x="621" y="205" type="line"/>
      <point x="581" y="76" type="line"/>
    </contour>
    <contour>
      <point x="526" y="725" type="line"/>
      <point x="60" y="725" type="line"/>
      <point x="60" y="750" type="line"/>
      <point x="526" y="750" type="line"/>
    </contour>
    <contour>
      <point x="449" y="750" type="move" name="top"/>
    </contour>
  </outline>
</glyph>
<glyph name="z" format="1">
  <advance width="830"/>
  <unicode hex="007A"/>
  <outline>
    <contour>
      <point x="261" y="161" type="line"/>
      <point x="717" y="723" type="line"/>
      <point x="535" y="723" type="line"/>
      <point x="95" y="0" type="line"/>
      <point x="121" y="0" type="line"/>
      <point x="195" y="91" type="line" smooth="yes"/>
      <point x="236.42471731722446" y="141.94120643064088"/>
      <point x="268" y="159"/>
      <point x="304" y="159" type="curve" smooth="yes"/>
      <point x="375" y="159"/>
      <point x="468" y="-20"/>
      <point x="571" y="-20" type="curve" smooth="yes"/>
      <point x="666" y="-20"/>
      <point x="713" y="81"/>
      <point x="713" y="232" type="curve" smooth="yes"/>
      <point x="713" y="347" type="line"/>
      <point x="687" y="347" type="line"/>
      <point x="687" y="228" type="line" smooth="yes"/>
      <point x="687" y="131"/>
      <point x="659" y="92"/>
      <point x="613" y="92" type="curve" smooth="yes"/>
      <point x="559" y="92"/>
      <point x="490" y="227"/>
      <point x="413" y="227" type="curve" smooth="yes"/>
      <point x="364" y="227"/>
      <point x="310.54474370799346" y="207.23579496639476"/>
      <point x="274" y="178" type="curve"/>
    </contour>
    <contour>
      <point x="135" y="409" type="line"/>
      <point x="135" y="750" type="line"/>
      <point x="717" y="750" type="line"/>
      <point x="717" y="723" type="line"/>
      <point x="337" y="723" type="line" smooth="yes"/>
      <point x="194" y="723"/>
      <point x="161" y="690"/>
      <point x="161" y="556" type="curve" smooth="yes"/>
      <point x="161" y="409" type="line"/>
    </contour>
    <contour>
      <point x="401" y="750" type="move" name="top"/>
    </contour>
  </outline>
</glyph>
<glyph name="braceleft" format="1">
  <advance width="465"/>
  <unicode hex="007B"/>
  <outline>
    <contour>
      <point x="200" y="701" type="curve" smooth="yes"/>
      <point x="200.0" y="765.0"/>
      <point x="282.6612244897959" y="803.0"/>
      <point x="444" y="803" type="curve"/>
      <point x="444" y="830" type="line"/>
      <point x="250" y="830"/>
      <point x="170" y="779"/>
      <point x="170" y="701" type="curve" smooth="yes"/>
      <point x="170.0" y="615.0"/>
      <point x="280.0" y="554.0"/>
      <point x="280" y="479" type="curve" smooth="yes"/>
      <point x="280" y="417"/>
      <point x="228" y="388"/>
      <point x="125" y="388" type="curve" smooth="yes"/>
      <point x="72" y="388" type="line"/>
      <point x="72" y="361" type="line"/>
      <point x="116" y="361" type="line"/>
      <point x="125" y="368" type="line"/>
      <point x="247" y="368"/>
      <point x="309" y="406"/>
      <point x="309" y="478" type="curve" smooth="yes"/>
      <point x="309.0" y="567.0"/>
      <point x="200.0" y="631.0"/>
    </contour>
    <contour>
      <point x="200" y="48" type="curve" smooth="yes"/>
      <point x="200.0" y="118.0"/>
      <point x="309.0" y="182.0"/>
      <point x="309" y="271" type="curve" smooth="yes"/>
      <point x="309" y="343"/>
      <point x="247" y="381"/>
      <point x="125" y="381" type="curve"/>
      <point x="116" y="388" type="line"/>
      <point x="72" y="388" type="line"/>
      <point x="72" y="361" type="line"/>
      <point x="125" y="361" type="line" smooth="yes"/>
      <point x="228" y="361"/>
      <point x="280" y="332"/>
      <point x="280" y="270" type="curve" smooth="yes"/>
      <point x="280.0" y="195.0"/>
      <point x="170.0" y="134.0"/>
      <point x="170" y="48" type="curve" smooth="yes"/>
      <point x="170" y="-30"/>
      <point x="250" y="-81"/>
      <point x="444" y="-81" type="curve"/>
      <point x="444" y="-54" type="line"/>
      <point x="282.6612244897959" y="-54.0"/>
      <point x="200.0" y="-16.0"/>
    </contour>
    <contour>
      <point x="444.0" y="750.0" type="move" name="top"/>
    </contour>
  </outline>
</glyph>
<glyph name="dieresis" format="1">
  <advance width="560"/>
  <unicode hex="00A8"/>
  <outline>
    <contour>
      <point x="146" y="800" type="curve" smooth="yes"/>
      <point x="200" y="800"/>
      <point x="225" y="811"/>
      <point x="225" y="833" type="curve" smooth="yes"/>
      <point x="225" y="856"/>
      <point x="200" y="870"/>
      <point x="146" y="870" type="curve" smooth="yes"/>
      <point x="92" y="870"/>
      <point x="67" y="856"/>
      <point x="67" y="833" type="curve" smooth="yes"/>
      <point x="67" y="811"/>
      <point x="92" y="800"/>
    </contour>
    <contour>
      <point x="418" y="800" type="curve" smooth="yes"/>
      <point x="472" y="800"/>
      <point x="497" y="811"/>
      <point x="497" y="833" type="curve" smooth="yes"/>
      <point x="497" y="856"/>
      <point x="472" y="870"/>
      <point x="418" y="870" type="curve" smooth="yes"/>
      <point x="364" y="870"/>
      <point x="339" y="856"/>
      <point x="339" y="833" type="curve" smooth="yes"/>
      <point x="339" y="811"/>
      <point x="364" y="800"/>
    </contour>
    <contour>
      <point x="285.0" y="750.0" type="move" name="_top"/>
    </contour>
  </outline>
</glyph>
<glyph name="macron" format="1">
  <advance width="600"/>
  <unicode hex="00AF"/>
  <outline>
    <contour>
      <point x="513" y="825" type="line"/>
      <point x="87" y="825" type="line"/>
      <point x="87" y="857" type="line"/>
      <point x="513" y="857" type="line"/>
    </contour>
    <contour>
      <point x="300.0" y="750.0" type="move" name="_top"/>
    </contour>
  </outline>
</glyph>
<glyph name="AE" format="1">
  <advance width="930"/>
  <unicode hex="00C6"/>
  <outline>
    <contour>
      <point x="526" y="0" type="line"/>
      <point x="380" y="0" type="line"/>
      <point x="380" y="25" type="line"/>
      <point x="526" y="25" type="line"/>
    </contour>
    <contour>
      <point x="670" y="414" type="line"/>
      <point x="670" y="387" type="line"/>
      <point x="439" y="387" type="line"/>
      <point x="439" y="414" type="line"/>
    </contour>
    <contour>
      <point x="781" y="461" type="line"/>
      <point x="756" y="461" type="line"/>
      <point x="756" y="566" type="line" smooth="yes"/>
      <point x="756" y="694"/>
      <point x="729" y="723"/>
      <point x="599" y="723" type="curve" smooth="yes"/>
      <point x="323" y="723" type="line"/>
      <point x="323" y="750" type="line"/>
      <point x="781" y="750" type="line"/>
    </contour>
    <contour>
      <point x="800" y="289" type="line"/>
      <point x="800" y="0" type="line"/>
      <point x="498" y="0" type="line"/>
      <point x="498" y="27" type="line"/>
      <point x="598" y="27" type="line" smooth="yes"/>
      <point x="742" y="27"/>
      <point x="775" y="60"/>
      <point x="775" y="194" type="curve" smooth="yes"/>
      <point x="775" y="289" type="line"/>
    </contour>
    <contour>
      <point x="656" y="222" type="line"/>
      <point x="656" y="565" type="line"/>
      <point x="681" y="565" type="line"/>
      <point x="681" y="222" type="line"/>
    </contour>
    <contour>
      <point x="595" y="0" type="line"/>
      <point x="468" y="0" type="line"/>
      <point x="320" y="750" type="line"/>
      <point x="447" y="750" type="line"/>
    </contour>
    <contour>
      <point x="276" y="0" type="line"/>
      <point x="276" y="25" type="line"/>
      <point x="60" y="25" type="line"/>
      <point x="60" y="0" type="line"/>
    </contour>
    <contour>
      <point x="307" y="750" type="line"/>
      <point x="338" y="750" type="line" smooth="yes"/>
      <point x="161" y="25" type="line"/>
      <point x="130" y="25" type="line"/>
    </contour>
    <contour>
      <point x="397" y="750" type="line"/>
      <point x="397" y="725" type="line"/>
      <point x="180" y="725" type="line"/>
      <point x="180" y="750" type="line"/>
    </contour>
    <contour>
      <point x="496" y="222" type="line"/>
      <point x="496" y="195" type="line"/>
      <point x="194" y="195" type="line"/>
      <point x="194" y="222" type="line"/>
    </contour>
    <contour>
      <point x="482.0" y="750.0" type="move" name="top"/>
    </contour>
    <contour>
      <point x="14.0" y="750.0" type="move" name="top"/>
    </contour>
  </outline>
</glyph>
<glyph name="Eth" format="1">
  <advance width="850"/>
  <unicode hex="00D0"/>
  <outline>
    <contour>
      <point x="518" y="398" type="line"/>
      <point x="70" y="398" type="line"/>
      <point x="70" y="425" type="line"/>
      <point x="518" y="425" type="line"/>
    </contour>
    <component base="D"/>
  </outline>
</glyph>
<glyph name="Oslash" format="1">
  <advance width="830"/>
  <unicode hex="00D8"/>
  <outline>
    <contour>
      <point x="162" y="0" type="line"/>
      <point x="702" y="750" type="line"/>
      <point x="668" y="750" type="line"/>
      <point x="128" y="0" type="line" smooth="yes"/>
    </contour>
    <component base="O"/>
  </outline>
</glyph>
<glyph name="ae" format="1">
  <advance width="930"/>
  <unicode hex="00E6"/>
  <outline>
    <contour>
      <point x="531" y="527" type="line"/>
      <point x="531" y="674"/>
      <point x="472" y="770"/>
      <point x="340" y="770" type="curve" smooth="yes"/>
      <point x="216" y="770"/>
      <point x="123" y="635"/>
      <point x="123" y="419" type="curve"/>
      <point x="148" y="419" type="line"/>
      <point x="148" y="632"/>
      <point x="239" y="743"/>
      <point x="338" y="743" type="curve" smooth="yes"/>
      <point x="390" y="743"/>
      <point x="403" y="688"/>
      <point x="403" y="547" type="curve" smooth="yes"/>
      <point x="403" y="401" type="line"/>
    </contour>
    <contour>
      <point x="403" y="503" type="line"/>
      <point x="403" y="458"/>
      <point x="358" y="431"/>
      <point x="313" y="412" type="curve" smooth="yes"/>
      <point x="200" y="364"/>
      <point x="98" y="285"/>
      <point x="98" y="156" type="curve" smooth="yes"/>
      <point x="98" y="58"/>
      <point x="150" y="-20"/>
      <point x="276" y="-20" type="curve" smooth="yes"/>
      <point x="391" y="-20"/>
      <point x="425" y="75"/>
      <point x="425" y="250" type="curve"/>
      <point x="403" y="356" type="line"/>
      <point x="403" y="266" type="line" smooth="yes"/>
      <point x="403" y="100"/>
      <point x="374" y="19"/>
      <point x="306" y="19" type="curve" smooth="yes"/>
      <point x="248" y="19"/>
      <point x="238" y="92"/>
      <point x="238" y="202" type="curve" smooth="yes"/>
      <point x="238" y="324"/>
      <point x="251" y="357"/>
      <point x="322" y="387" type="curve" smooth="yes"/>
      <point x="382" y="412"/>
      <point x="407" y="434"/>
      <point x="421" y="473" type="curve"/>
      <point x="421" y="503" type="line"/>
    </contour>
    <contour>
      <point x="148" y="750" type="line"/>
      <point x="123" y="750" type="line"/>
      <point x="123" y="397" type="line" smooth="yes"/>
      <point x="148" y="397" type="line"/>
    </contour>
    <contour>
      <point x="825" y="282" type="line"/>
      <point x="825" y="96"/>
      <point x="762" y="9"/>
      <point x="658" y="9" type="curve" smooth="yes"/>
      <point x="574" y="9"/>
      <point x="542" y="120"/>
      <point x="542" y="367" type="curve" smooth="yes"/>
      <point x="542" y="630"/>
      <point x="566" y="743"/>
      <point x="624" y="743" type="curve"/>
      <point x="688" y="743"/>
      <point x="714" y="625"/>
      <point x="712" y="351" type="curve"/>
      <point x="852" y="351" type="line"/>
      <point x="854" y="621"/>
      <point x="779" y="770"/>
      <point x="623" y="770" type="curve"/>
      <point x="476" y="770"/>
      <point x="402" y="627"/>
      <point x="402" y="368" type="curve" smooth="yes"/>
      <point x="402" y="116"/>
      <point x="484" y="-20"/>
      <point x="658" y="-20" type="curve" smooth="yes"/>
      <point x="781" y="-20"/>
      <point x="852" y="86"/>
      <point x="852" y="282" type="curve"/>
    </contour>
    <contour>
      <point x="738" y="378" type="curve"/>
      <point x="518" y="378" type="line"/>
      <point x="520" y="351" type="line"/>
      <point x="738" y="351" type="line"/>
      <point x="738" y="351"/>
      <point x="738" y="378"/>
    </contour>
  </outline>
</glyph>
<glyph name="dotlessi" format="1">
  <advance width="530"/>
  <unicode hex="0131"/>
  <outline>
    <contour>
      <point x="329" y="0" type="line"/>
      <point x="201" y="0" type="line"/>
      <point x="201" y="590" type="line"/>
      <point x="329" y="590" type="line"/>
    </contour>
    <contour>
      <point x="439" y="25" type="line"/>
      <point x="439" y="0" type="line"/>
      <point x="307" y="0" type="line"/>
      <point x="307" y="25" type="line"/>
    </contour>
    <contour>
      <point x="223" y="0" type="line"/>
      <point x="90" y="0" type="line"/>
      <point x="90" y="25" type="line"/>
      <point x="223" y="25" type="line"/>
    </contour>
    <contour>
      <point x="90" y="565" type="line"/>
      <point x="90" y="590" type="line"/>
      <point x="228" y="590" type="line"/>
      <point x="228" y="565" type="line"/>
    </contour>
    <contour>
      <point x="440" y="590" type="line"/>
      <point x="440" y="566" type="line"/>
      <point x="307" y="566" type="line"/>
      <point x="307" y="590" type="line"/>
    </contour>
  </outline>
</glyph>
<glyph name="lslash" format="1">
  <advance width="555"/>
  <unicode hex="0142"/>
  <outline>
    <contour>
      <point x="429" y="490" type="line"/>
      <point x="70" y="316" type="line"/>
      <point x="70" y="346" type="line"/>
      <point x="429" y="520" type="line"/>
    </contour>
    <component base="l"/>
  </outline>
</glyph>
<glyph name="dotlessj" format="1">
  <advance width="564"/>
  <unicode hex="0237"/>
  <outline>
    <contour>
      <point x="446" y="590" type="line"/>
      <point x="446" y="563" type="line"/>
      <point x="139" y="563" type="line"/>
      <point x="139" y="590" type="line"/>
    </contour>
    <contour>
      <point x="446" y="582" type="line"/>
      <point x="446" y="257" type="line" smooth="yes"/>
      <point x="446" y="71"/>
      <point x="377" y="-20"/>
      <point x="216" y="-20" type="curve" smooth="yes"/>
      <point x="119" y="-20"/>
      <point x="60" y="35"/>
      <point x="60" y="132" type="curve" smooth="yes"/>
      <point x="60" y="326"/>
      <point x="293" y="346"/>
      <point x="318" y="562" type="curve"/>
      <point x="334" y="544" type="line"/>
      <point x="324" y="491" type="line"/>
      <point x="275" y="321"/>
      <point x="87" y="290"/>
      <point x="87" y="132" type="curve" smooth="yes"/>
      <point x="87" y="43"/>
      <point x="145" y="7"/>
      <point x="214" y="7" type="curve" smooth="yes"/>
      <point x="300" y="7"/>
      <point x="318" y="69"/>
      <point x="318" y="257" type="curve" smooth="yes"/>
      <point x="318" y="582" type="line"/>
    </contour>
  </outline>
</glyph>
<glyph name="circumflex" format="1">
  <advance width="600"/>
  <unicode hex="02C6"/>
  <outline>
    <contour>
      <point x="300" y="937" type="line"/>
      <point x="223" y="864"/>
      <point x="172" y="832"/>
      <point x="65" y="815" type="curve"/>
      <point x="65" y="800" type="line"/>
      <point x="172.0" y="810.0"/>
      <point x="228" y="824"/>
      <point x="300" y="879" type="curve"/>
    </contour>
    <contour>
      <point x="300" y="937" type="curve"/>
      <point x="300" y="879" type="line"/>
      <point x="372" y="824"/>
      <point x="428" y="810"/>
      <point x="535" y="800" type="curve"/>
      <point x="535" y="815" type="line"/>
      <point x="428" y="832"/>
      <point x="377" y="864"/>
    </contour>
    <contour>
      <point x="300.0" y="750.0" type="move" name="_top"/>
    </contour>
  </outline>
</glyph>
<glyph name="emdash" format="1">
  <advance width="930"/>
  <unicode hex="2014"/>
  <outline>
    <contour>
      <point x="845" y="398" type="line"/>
      <point x="85" y="398" type="line"/>
      <point x="85" y="425" type="line"/>
      <point x="845" y="425" type="line"/>
    </contour>
  </outline>
</glyph>
<glyph name="quoteright" format="1">
  <advance width="238"/>
  <unicode hex="2019"/>
  <outline>
    <contour>
      <point x="173" y="773" type="line"/>
      <point x="91" y="480" type="line"/>
      <point x="65" y="487" type="line"/>
      <point x="152" y="800" type="line"/>
    </contour>
    <contour>
      <point x="173" y="773" type="line"/>
      <point x="66" y="773" type="line"/>
      <point x="66" y="800" type="line"/>
      <point x="173" y="800" type="line"/>
    </contour>
  </outline>
</glyph>
<glyph name="bullet" format="1">
  <advance width="465"/>
  <unicode hex="2022"/>
  <outline>
    <contour>
      <point x="231" y="503" type="curve" smooth="yes"/>
      <point x="300" y="503"/>
      <point x="330" y="471"/>
      <point x="330" y="397" type="curve" smooth="yes"/>
      <point x="330" y="335"/>
      <point x="298" y="307"/>
      <point x="231" y="307" type="curve" smooth="yes"/>
      <point x="165" y="307"/>
      <point x="134" y="335"/>
      <point x="134" y="397" type="curve" smooth="yes"/>
      <point x="134" y="471"/>
      <point x="163" y="503"/>
    </contour>
  </outline>
</glyph>
<glyph name="guilsinglleft" format="1">
  <advance width="365"/>
  <unicode hex="2039"/>
  <outline>
    <contour>
      <point x="85" y="397" type="line"/>
      <point x="164" y="314"/>
      <point x="200" y="269"/>
      <point x="227" y="162" type="curve"/>
      <point x="242" y="162" type="line"/>
      <point x="222" y="269"/>
      <point x="204" y="318"/>
      <point x="143" y="397" type="curve"/>
    </contour>
    <contour>
      <point x="85" y="397" type="curve"/>
      <point x="143" y="397" type="line"/>
      <point x="204" y="476"/>
      <point x="222" y="525"/>
      <point x="242" y="632" type="curve"/>
      <point x="227" y="632" type="line"/>
      <point x="200" y="525"/>
      <point x="164" y="480"/>
    </contour>
  </outline>
</glyph>
<glyph name="squareblack" format="1">
  <advance width="930"/>
  <unicode hex="25A0"/>
  <outline>
    <contour>
      <point x="323" y="538" type="line"/>
      <point x="323" y="247" type="line"/>
      <point x="607" y="247" type="line"/>
      <point x="607" y="538" type="line"/>
    </contour>
  </outline>
</glyph>
<glyph name="triangleupblack" format="1">
  <advance width="930"/>
  <unicode hex="25B2"/>
  <outline>
    <contour>
      <point x="45" y="0" type="line"/>
      <point x="885" y="0" type="line"/>
      <point x="465" y="800" type="line"/>
    </contour>
  </outline>
</glyph>
<glyph name="starwhite" format="1">
  <advance width="930"/>
  <unicode hex="2606"/>
  <outline>
    <contour>
      <point x="465" y="238" type="line"/>
      <point x="244" y="81" type="line"/>
      <point x="330" y="337" type="line"/>
      <point x="108" y="501" type="line"/>
      <point x="381" y="495" type="line"/>
      <point x="465" y="760" type="line"/>
      <point x="549" y="495" type="line"/>
      <point x="822" y="501" type="line"/>
      <point x="600" y="337" type="line"/>
      <point x="686" y="81" type="line"/>
    </contour>
    <contour>
      <point x="566" y="348" type="line"/>
      <point x="732" y="470" type="line"/>
      <point x="528" y="466" type="line"/>
      <point x="465" y="663" type="line"/>
      <point x="402" y="466" type="line"/>
      <point x="198" y="470" type="line"/>
      <point x="364" y="348" type="line"/>
      <point x="299" y="156" type="line"/>
      <point x="465" y="274" type="line"/>
      <point x="631" y="156" type="line"/>
    </contour>
  </outline>
</glyph>
<glyph name="sunrayswhite" format="1">
  <advance width="930"/>
  <unicode hex="263C"/>
  <outline>
    <contour>
      <point x="464" y="620" type="curve" smooth="yes"/>
      <point x="315" y="620"/>
      <point x="240" y="531"/>
      <point x="240" y="368" type="curve" smooth="yes"/>
      <point x="240" y="214"/>
      <point x="318" y="130"/>
      <point x="464" y="130" type="curve" smooth="yes"/>
      <point x="611" y="130"/>
      <point x="689" y="214"/>
      <point x="689" y="368" type="curve" smooth="yes"/>
      <point x="689" y="531"/>
      <point x="614" y="620"/>
    </contour>
    <contour>
      <point x="464" y="159" type="curve" smooth="yes"/>
      <point x="338" y="159"/>
      <point x="269" y="226"/>
      <point x="269" y="367" type="curve" smooth="yes"/>
      <point x="269" y="518"/>
      <point x="334" y="591"/>
      <point x="464" y="591" type="curve" smooth="yes"/>
      <point x="595" y="591"/>
      <point x="660" y="518"/>
      <point x="660" y="367" type="curve" smooth="yes"/>
      <point x="660" y="226"/>
      <point x="591" y="159"/>
    </contour>
    <contour>
      <point x="269" y="354" type="line"/>
      <point x="269" y="381" type="line"/>
      <point x="58" y="381" type="line"/>
      <point x="58" y="354" type="line"/>
    </contour>
    <contour>
      <point x="871" y="354" type="line"/>
      <point x="871" y="381" type="line"/>
      <point x="660" y="381" type="line"/>
      <point x="660" y="354" type="line"/>
    </contour>
    <contour>
      <point x="478" y="159" type="line"/>
      <point x="451" y="159" type="line"/>
      <point x="451" y="-39" type="line"/>
      <point x="478" y="-39" type="line"/>
    </contour>
    <contour>
      <point x="478" y="774" type="line"/>
      <point x="451" y="774" type="line"/>
      <point x="451" y="593" type="line"/>
      <point x="478" y="593" type="line"/>
    </contour>
    <contour>
      <point x="316" y="200" type="line"/>
      <point x="297" y="219" type="line"/>
      <point x="168" y="89" type="line"/>
      <point x="187" y="70" type="line"/>
    </contour>
    <contour>
      <point x="762" y="645" type="line"/>
      <point x="743" y="664" type="line"/>
      <point x="614" y="535" type="line"/>
      <point x="633" y="516" type="line"/>
    </contour>
    <contour>
      <point x="632" y="219" type="line"/>
      <point x="613" y="200" type="line"/>
      <point x="743" y="70" type="line"/>
      <point x="762" y="89" type="line"/>
    </contour>
    <contour>
      <point x="187" y="664" type="line"/>
      <point x="168" y="645" type="line"/>
      <point x="296" y="517" type="line"/>
      <point x="315" y="536" type="line"/>
    </contour>
    <contour>
      <point x="464.0" y="750.0" type="move" name="top"/>
    </contour>
  </outline>
</glyph>
<glyph name="dngb:starofdavid" format="1">
  <advance width="930"/>
  <unicode hex="2721"/>
  <outline>
    <contour>
      <point x="465" y="1" type="line"/>
      <point x="355" y="195" type="line"/>
      <point x="124" y="195" type="line"/>
      <point x="241" y="395" type="line"/>
      <point x="124" y="595" type="line"/>
      <point x="355" y="595" type="line"/>
      <point x="465" y="789" type="line"/>
      <point x="575" y="595" type="line"/>
      <point x="806" y="595" type="line"/>
      <point x="693" y="395" type="line"/>
      <point x="806" y="195" type="line"/>
      <point x="575" y="195" type="line"/>
    </contour>
    <contour>
      <point x="558" y="224" type="line"/>
      <point x="757" y="224" type="line"/>
      <point x="660" y="395" type="line"/>
      <point x="757" y="566" type="line"/>
      <point x="558" y="566" type="line"/>
      <point x="465" y="731" type="line"/>
      <point x="372" y="566" type="line"/>
      <point x="175" y="566" type="line"/>
      <point x="275" y="395" type="line"/>
      <point x="175" y="224" type="line"/>
      <point x="372" y="224" type="line"/>
      <point x="465" y="59" type="line"/>
    </contour>
  </outline>
</glyph>
<glyph name="dngb:asteriskballoonfour" format="1">
  <advance width="930"/>
  <unicode hex="2723"/>
  <outline>
    <contour>
      <point x="458" y="383" type="curve" smooth="yes"/>
      <point x="458" y="552"/>
      <point x="369" y="574"/>
      <point x="369" y="669" type="curve" smooth="yes"/>
      <point x="369" y="717"/>
      <point x="405" y="766"/>
      <point x="470" y="766" type="curve" smooth="yes"/>
      <point x="535" y="766"/>
      <point x="571" y="717"/>
      <point x="571" y="669" type="curve" smooth="yes"/>
      <point x="571" y="574"/>
      <point x="482" y="552"/>
      <point x="482" y="383" type="curve" smooth="yes"/>
      <point x="482" y="214"/>
      <point x="571" y="192"/>
      <point x="571" y="97" type="curve" smooth="yes"/>
      <point x="571" y="49"/>
      <point x="535" y="0"/>
      <point x="470" y="0" type="curve" smooth="yes"/>
      <point x="405" y="0"/>
      <point x="369" y="49"/>
      <point x="369" y="97" type="curve" smooth="yes"/>
      <point x="369" y="192"/>
      <point x="458" y="214"/>
    </contour>
    <contour>
      <point x="470" y="371" type="curve" smooth="yes"/>
      <point x="301" y="371"/>
      <point x="279" y="282"/>
      <point x="184" y="282" type="curve" smooth="yes"/>
      <point x="136" y="282"/>
      <point x="87" y="318"/>
      <point x="87" y="383" type="curve" smooth="yes"/>
      <point x="87" y="448"/>
      <point x="136" y="484"/>
      <point x="184" y="484" type="curve" smooth="yes"/>
      <point x="279" y="484"/>
      <point x="301" y="395"/>
      <point x="470" y="395" type="curve" smooth="yes"/>
      <point x="639" y="395"/>
      <point x="661" y="484"/>
      <point x="756" y="484" type="curve" smooth="yes"/>
      <point x="804" y="484"/>
      <point x="853" y="448"/>
      <point x="853" y="383" type="curve" smooth="yes"/>
      <point x="853" y="318"/>
      <point x="804" y="282"/>
      <point x="756" y="282" type="curve" smooth="yes"/>
      <point x="661" y="282"/>
      <point x="639" y="371"/>
    </contour>
  </outline>
</glyph>
<glyph name="dngb:asteriskclubfour" format="1">
  <advance width="930"/>
  <unicode hex="2725"/>
  <outline>
    <contour>
      <point x="482" y="383" type="curve" smooth="yes"/>
      <point x="482" y="214"/>
      <point x="529" y="165"/>
      <point x="581" y="97" type="curve"/>
      <point x="581" y="49"/>
      <point x="541" y="0"/>
      <point x="470" y="0" type="curve" smooth="yes"/>
      <point x="399" y="0"/>
      <point x="359" y="49"/>
      <point x="359" y="97" type="curve"/>
      <point x="411" y="165"/>
      <point x="458" y="214"/>
      <point x="458" y="383" type="curve" smooth="yes"/>
      <point x="458" y="552"/>
      <point x="411" y="601"/>
      <point x="359" y="669" type="curve"/>
      <point x="359" y="717"/>
      <point x="399" y="766"/>
      <point x="470" y="766" type="curve" smooth="yes"/>
      <point x="541" y="766"/>
      <point x="581" y="717"/>
      <point x="581" y="669" type="curve"/>
      <point x="529" y="601"/>
      <point x="482" y="552"/>
    </contour>
    <contour>
      <point x="470" y="395" type="curve" smooth="yes"/>
      <point x="639" y="395"/>
      <point x="688" y="442"/>
      <point x="756" y="494" type="curve"/>
      <point x="804" y="494"/>
      <point x="853" y="454"/>
      <point x="853" y="383" type="curve" smooth="yes"/>
      <point x="853" y="312"/>
      <point x="804" y="272"/>
      <point x="756" y="272" type="curve"/>
      <point x="688" y="324"/>
      <point x="639" y="371"/>
      <point x="470" y="371" type="curve" smooth="yes"/>
      <point x="301" y="371"/>
      <point x="252" y="324"/>
      <point x="184" y="272" type="curve"/>
      <point x="136" y="272"/>
      <point x="87" y="312"/>
      <point x="87" y="383" type="curve" smooth="yes"/>
      <point x="87" y="454"/>
      <point x="136" y="494"/>
      <point x="184" y="494" type="curve"/>
      <point x="252" y="442"/>
      <point x="301" y="395"/>
    </contour>
  </outline>
</glyph>
<glyph name="dngb:arrowheadrightthreeDtoplight" format="1">
  <advance width="930"/>
  <unicode hex="27A2"/>
  <outline>
    <contour>
      <point x="196" y="109" type="line"/>
      <point x="286" y="397" type="line"/>
      <point x="196" y="688" type="line"/>
      <point x="693" y="397" type="line"/>
    </contour>
    <contour>
      <point x="316" y="397" type="line"/>
      <point x="636" y="397" type="line"/>
      <point x="246" y="626" type="line"/>
    </contour>
  </outline>
</glyph>
<glyph name="uniA672" format="1">
  <advance width="930"/>
  <unicode hex="A672"/>
  <outline>
    <contour>
      <point x="103" y="355" type="line"/>
      <point x="837" y="355" type="line"/>
      <point x="837" y="380" type="line"/>
      <point x="103" y="380" type="line"/>
    </contour>
    <contour>
      <point x="477" y="-19" type="line"/>
      <point x="477" y="765" type="line"/>
      <point x="451" y="765" type="line"/>
      <point x="451" y="-19" type="line"/>
    </contour>
    <component base="circlewhite"/>
    <contour>
      <point x="464.0" y="750.0" type="move" name="top"/>
    </contour>
  </outline>
</glyph>
<glyph name="uniA69A" format="1">
  <advance width="930"/>
  <unicode hex="A69A"/>
  <outline>
    <contour>
      <point x="449" y="584" type="line"/>
      <point x="482" y="584" type="line"/>
      <point x="482" y="676" type="line"/>
      <point x="584" y="676" type="line"/>
      <point x="584" y="703" type="line"/>
      <point x="482" y="703" type="line"/>
      <point x="482" y="793" type="line"/>
      <point x="449" y="793" type="line"/>
      <point x="449" y="703" type="line"/>
      <point x="347" y="703" type="line"/>
      <point x="347" y="676" type="line"/>
      <point x="449" y="676" type="line"/>
    </contour>
    <contour>
      <point x="83" y="549" type="line"/>
      <point x="302" y="549" type="line"/>
      <point x="302" y="576" type="line"/>
      <point x="83" y="576" type="line"/>
    </contour>
    <contour>
      <point x="628" y="549" type="line"/>
      <point x="848" y="549" type="line"/>
      <point x="848" y="576" type="line"/>
      <point x="628" y="576" type="line"/>
    </contour>
    <contour>
      <point x="83" y="368" type="line"/>
      <point x="302" y="368" type="line"/>
      <point x="302" y="395" type="line"/>
      <point x="83" y="395" type="line"/>
    </contour>
    <contour>
      <point x="628" y="368" type="line"/>
      <point x="848" y="368" type="line"/>
      <point x="848" y="395" type="line"/>
      <point x="628" y="395" type="line"/>
    </contour>
    <contour>
      <point x="83" y="188" type="line"/>
      <point x="302" y="188" type="line"/>
      <point x="302" y="215" type="line"/>
      <point x="83" y="215" type="line"/>
    </contour>
    <contour>
      <point x="628" y="188" type="line"/>
      <point x="848" y="188" type="line"/>
      <point x="848" y="215" type="line"/>
      <point x="628" y="215" type="line"/>
    </contour>
    <contour>
      <point x="312" y="-41" type="line"/>
      <point x="345" y="-41" type="line"/>
      <point x="345" y="169" type="line"/>
      <point x="312" y="169" type="line"/>
    </contour>
    <contour>
      <point x="449" y="-41" type="line"/>
      <point x="482" y="-41" type="line"/>
      <point x="482" y="169" type="line"/>
      <point x="449" y="169" type="line"/>
    </contour>
    <contour>
      <point x="586" y="-41" type="line"/>
      <point x="619" y="-41" type="line"/>
      <point x="619" y="169" type="line"/>
      <point x="586" y="169" type="line"/>
    </contour>
  </outline>
</glyph>
<glyph name="A.2" format="1">
  <advance width="790"/>
  <outline>
    <contour>
      <point x="62" y="11" type="line"/>
      <point x="365" y="719" type="line" smooth="yes"/>
      <point x="380" y="754"/>
      <point x="405" y="752"/>
      <point x="420" y="744" type="curve" smooth="yes"/>
      <point x="435" y="736"/>
      <point x="444" y="716"/>
      <point x="437" y="691" type="curve" smooth="yes"/>
      <point x="255" y="48" type="line" smooth="yes"/>
      <point x="252" y="36"/>
      <point x="254" y="30"/>
      <point x="262" y="28" type="curve" smooth="yes"/>
      <point x="270" y="26"/>
      <point x="279" y="31"/>
      <point x="284" y="42" type="curve" smooth="yes"/>
      <point x="481" y="512" type="line" smooth="yes"/>
      <point x="495" y="545"/>
      <point x="516" y="545"/>
      <point x="532" y="537" type="curve" smooth="yes"/>
      <point x="546" y="529"/>
      <point x="559" y="509"/>
      <point x="553" y="479" type="curve" smooth="yes"/>
      <point x="469" y="44" type="line" smooth="yes"/>
      <point x="468" y="38"/>
      <point x="468" y="30"/>
      <point x="473" y="29" type="curve" smooth="yes"/>
      <point x="481" y="27"/>
      <point x="485" y="31"/>
      <point x="489" y="40" type="curve" smooth="yes"/>
      <point x="580" y="242" type="line" smooth="yes"/>
      <point x="592" y="269"/>
      <point x="617" y="269"/>
      <point x="631" y="261" type="curve" smooth="yes"/>
      <point x="649" y="251"/>
      <point x="652" y="229"/>
      <point x="647" y="206" type="curve" smooth="yes"/>
      <point x="609" y="38" type="line" smooth="yes"/>
      <point x="608" y="32"/>
      <point x="608" y="28"/>
      <point x="612" y="27" type="curve" smooth="yes"/>
      <point x="617" y="26"/>
      <point x="620" y="28"/>
      <point x="624" y="35" type="curve" smooth="yes"/>
      <point x="671" y="111" type="line"/>
      <point x="695" y="96" type="line"/>
      <point x="651" y="25" type="line" smooth="yes"/>
      <point x="636" y="0"/>
      <point x="618" y="-4"/>
      <point x="604" y="0" type="curve" smooth="yes"/>
      <point x="585" y="5"/>
      <point x="575" y="20"/>
      <point x="581" y="45" type="curve" smooth="yes"/>
      <point x="619" y="212" type="line" smooth="yes"/>
      <point x="621" y="222"/>
      <point x="624" y="231"/>
      <point x="618" y="235" type="curve" smooth="yes"/>
      <point x="613" y="238"/>
      <point x="609" y="235"/>
      <point x="607" y="230" type="curve" smooth="yes"/>
      <point x="515" y="28" type="line" smooth="yes"/>
      <point x="505" y="6"/>
      <point x="484" y="-2"/>
      <point x="468" y="1" type="curve" smooth="yes"/>
      <point x="451" y="4"/>
      <point x="434" y="18"/>
      <point x="440" y="49" type="curve" smooth="yes"/>
      <point x="525" y="485" type="line" smooth="yes"/>
      <point x="527" y="497"/>
      <point x="527" y="506"/>
      <point x="521" y="510" type="curve" smooth="yes"/>
      <point x="515" y="514"/>
      <point x="510" y="509"/>
      <point x="507" y="501" type="curve" smooth="yes"/>
      <point x="310" y="31" type="line" smooth="yes"/>
      <point x="299" y="4"/>
      <point x="275" y="-4"/>
      <point x="256" y="0" type="curve" smooth="yes"/>
      <point x="235" y="5"/>
      <point x="219" y="23"/>
      <point x="227" y="52" type="curve" smooth="yes"/>
      <point x="409" y="699" type="line" smooth="yes"/>
      <point x="412" y="708"/>
      <point x="413" y="715"/>
      <point x="407" y="718" type="curve" smooth="yes"/>
      <point x="401" y="721"/>
      <point x="395" y="718"/>
      <point x="391" y="708" type="curve" smooth="yes"/>
      <point x="87" y="0" type="line"/>
    </contour>
    <contour>
      <point x="344" y="750" type="move" name="top"/>
    </contour>
    <contour>
      <point x="344" y="750" type="move" name="top"/>
    </contour>
  </outline>
</glyph>
<glyph name="FAM" format="1">
  <advance width="930"/>
  <outline>
    <contour>
      <point x="212" y="405" type="line"/>
      <point x="149" y="405" type="line"/>
      <point x="149" y="780" type="line"/>
      <point x="212" y="780" type="line"/>
    </contour>
    <contour>
      <point x="304" y="418" type="line"/>
      <point x="304" y="405" type="line"/>
      <point x="201" y="405" type="line"/>
      <point x="201" y="418" type="line"/>
    </contour>
    <contour>
      <point x="160" y="405" type="line"/>
      <point x="72" y="405" type="line"/>
      <point x="72" y="418" type="line"/>
      <point x="160" y="418" type="line"/>
    </contour>
    <contour>
      <point x="72" y="767" type="line"/>
      <point x="72" y="780" type="line"/>
      <point x="160" y="780" type="line"/>
      <point x="160" y="767" type="line"/>
    </contour>
    <contour>
      <point x="349" y="567" type="line"/>
      <point x="349" y="554" type="line"/>
      <point x="196" y="554" type="line"/>
      <point x="196" y="567" type="line"/>
    </contour>
    <contour>
      <point x="341" y="475" type="line"/>
      <point x="341" y="646" type="line"/>
      <point x="353" y="646" type="line"/>
      <point x="353" y="475" type="line"/>
    </contour>
    <contour>
      <point x="446" y="611" type="line"/>
      <point x="433" y="611" type="line"/>
      <point x="433" y="683" type="line" smooth="yes"/>
      <point x="433" y="750"/>
      <point x="417" y="767"/>
      <point x="345" y="767" type="curve" smooth="yes"/>
      <point x="205" y="767" type="line"/>
      <point x="205" y="780" type="line"/>
      <point x="446" y="780" type="line"/>
    </contour>
    <contour>
      <point x="694" y="246" type="curve" smooth="yes"/>
      <point x="694" y="-21" type="line"/>
      <point x="630" y="-21" type="line"/>
      <point x="630" y="-13" type="line"/>
      <point x="630" y="246" type="line" smooth="yes"/>
      <point x="630" y="322"/>
      <point x="624" y="347"/>
      <point x="606" y="347" type="curve" smooth="yes"/>
      <point x="586" y="347"/>
      <point x="569" y="305"/>
      <point x="569" y="206" type="curve"/>
      <point x="555" y="242" type="line"/>
      <point x="563" y="334"/>
      <point x="581" y="365"/>
      <point x="619" y="365" type="curve" smooth="yes"/>
      <point x="667" y="365"/>
      <point x="694" y="320"/>
    </contour>
    <contour>
      <point x="569" y="-21" type="line"/>
      <point x="506" y="-21" type="line"/>
      <point x="506" y="355" type="line"/>
      <point x="563" y="355" type="line"/>
      <point x="563" y="273" type="line"/>
      <point x="569" y="277" type="line"/>
    </contour>
    <contour>
      <point x="790" y="-21" type="line"/>
      <point x="464" y="-21" type="line"/>
      <point x="464" y="-8" type="line"/>
      <point x="790" y="-8" type="line"/>
    </contour>
    <contour>
      <point x="464" y="342" type="line"/>
      <point x="464" y="355" type="line"/>
      <point x="517" y="355" type="line"/>
      <point x="517" y="342" type="line"/>
    </contour>
    <contour>
      <point x="818" y="246" type="curve" smooth="yes"/>
      <point x="818" y="-21" type="line"/>
      <point x="755" y="-21" type="line"/>
      <point x="755" y="-13" type="line"/>
      <point x="755" y="246" type="line" smooth="yes"/>
      <point x="755" y="322"/>
      <point x="747" y="347"/>
      <point x="728" y="347" type="curve" smooth="yes"/>
      <point x="709" y="347"/>
      <point x="694" y="304"/>
      <point x="694" y="206" type="curve"/>
      <point x="679" y="242" type="line"/>
      <point x="687" y="335"/>
      <point x="702" y="365"/>
      <point x="741" y="365" type="curve" smooth="yes"/>
      <point x="791" y="365"/>
      <point x="818" y="320"/>
    </contour>
    <contour>
      <point x="859" y="-8" type="line"/>
      <point x="859" y="-21" type="line"/>
      <point x="807" y="-21" type="line"/>
      <point x="807" y="-8" type="line"/>
    </contour>
    <contour>
      <point x="223" y="186" type="move"/>
      <point x="153" y="157"/>
      <point x="71" y="125"/>
      <point x="71" y="61" type="curve" smooth="yes"/>
      <point x="71" y="11"/>
      <point x="104" y="-28"/>
      <point x="185" y="-28" type="curve" smooth="yes"/>
      <point x="260" y="-28"/>
      <point x="333" y="46"/>
      <point x="333" y="107" type="curve"/>
      <point x="324" y="161" type="line"/>
      <point x="324" y="116" type="line" smooth="yes"/>
      <point x="324" y="63"/>
      <point x="263" y="-8"/>
      <point x="200" y="-8" type="curve" smooth="yes"/>
      <point x="150" y="-8"/>
      <point x="141" y="29"/>
      <point x="141" y="84" type="curve" smooth="yes"/>
      <point x="141" y="133"/>
      <point x="167" y="148"/>
      <point x="228" y="174" type="curve" smooth="yes"/>
      <point x="290" y="200"/>
      <point x="323" y="212"/>
      <point x="333" y="241" type="curve"/>
      <point x="333" y="255" type="line"/>
      <point x="324" y="255" type="line"/>
      <point x="324" y="223"/>
      <point x="275" y="208"/>
      <point x="223" y="186" type="curve"/>
    </contour>
    <contour>
      <point x="707" y="510" type="line" smooth="yes"/>
      <point x="757" y="454"/>
      <point x="776" y="436"/>
      <point x="792" y="436" type="curve" smooth="yes"/>
      <point x="807" y="436"/>
      <point x="813" y="449"/>
      <point x="813" y="469" type="curve" smooth="yes"/>
      <point x="813" y="531" type="line"/>
      <point x="826" y="531" type="line"/>
      <point x="826" y="469" type="line" smooth="yes"/>
      <point x="826" y="417"/>
      <point x="808" y="395"/>
      <point x="768" y="395" type="curve" smooth="yes"/>
      <point x="739" y="395"/>
      <point x="711" y="412"/>
      <point x="650" y="479" type="curve" smooth="yes"/>
      <point x="534" y="609" type="line" smooth="yes"/>
      <point x="505" y="641"/>
      <point x="495" y="676"/>
      <point x="495" y="704" type="curve" smooth="yes"/>
      <point x="495" y="754"/>
      <point x="535" y="790"/>
      <point x="605" y="790" type="curve" smooth="yes"/>
      <point x="670" y="790"/>
      <point x="713" y="762"/>
      <point x="713" y="708" type="curve" smooth="yes"/>
      <point x="713" y="663"/>
      <point x="681" y="626"/>
      <point x="636" y="624" type="curve"/>
      <point x="634" y="636" type="line"/>
      <point x="676" y="639"/>
      <point x="700" y="671"/>
      <point x="700" y="708" type="curve" smooth="yes"/>
      <point x="700" y="756"/>
      <point x="661" y="777"/>
      <point x="607" y="777" type="curve" smooth="yes"/>
      <point x="573" y="777"/>
      <point x="543" y="766"/>
      <point x="543" y="731" type="curve" smooth="yes"/>
      <point x="543" y="711"/>
      <point x="553" y="683"/>
      <point x="589" y="643" type="curve" smooth="yes"/>
    </contour>
    <contour>
      <point x="634" y="636" type="line"/>
      <point x="796" y="636" type="line"/>
      <point x="796" y="624" type="line"/>
      <point x="634" y="624" type="line"/>
    </contour>
    <contour>
      <point x="695" y="504" type="curve" smooth="yes"/>
      <point x="692" y="498" type="line"/>
      <point x="682" y="508" type="line"/>
      <point x="683" y="511" type="line" smooth="yes"/>
      <point x="699" y="546"/>
      <point x="701" y="589"/>
      <point x="701" y="628" type="curve" smooth="yes"/>
      <point x="701" y="631" type="line"/>
      <point x="714" y="633" type="line"/>
      <point x="714" y="628" type="line" smooth="yes"/>
      <point x="714" y="590"/>
      <point x="712" y="543"/>
    </contour>
    <contour>
      <point x="549" y="598" type="curve" smooth="yes"/>
      <point x="553" y="600" type="line"/>
      <point x="559" y="588" type="line"/>
      <point x="555" y="587" type="line" smooth="yes"/>
      <point x="514" y="571"/>
      <point x="502" y="553"/>
      <point x="502" y="493" type="curve" smooth="yes"/>
      <point x="502" y="435"/>
      <point x="522" y="413"/>
      <point x="557" y="413" type="curve" smooth="yes"/>
      <point x="602" y="413"/>
      <point x="633" y="432"/>
      <point x="666" y="476" type="curve" smooth="yes"/>
      <point x="669" y="480" type="line"/>
      <point x="678" y="472" type="line"/>
      <point x="676" y="469" type="line" smooth="yes"/>
      <point x="650" y="423"/>
      <point x="599" y="395"/>
      <point x="537" y="395" type="curve" smooth="yes"/>
      <point x="473" y="395"/>
      <point x="432" y="442"/>
      <point x="432" y="483" type="curve" smooth="yes"/>
      <point x="432" y="541"/>
      <point x="492" y="577"/>
    </contour>
    <contour>
      <point x="226" y="368" type="curve" smooth="yes"/>
      <point x="145" y="368"/>
      <point x="73" y="317"/>
      <point x="73" y="252" type="curve" smooth="yes"/>
      <point x="73" y="221"/>
      <point x="86" y="196"/>
      <point x="111" y="181" type="curve"/>
      <point x="119" y="192" type="line"/>
      <point x="100" y="205"/>
      <point x="86" y="222"/>
      <point x="86" y="252" type="curve" smooth="yes"/>
      <point x="86" y="315"/>
      <point x="158" y="355"/>
      <point x="225" y="355" type="curve" smooth="yes"/>
      <point x="299" y="355"/>
      <point x="324" y="327"/>
      <point x="324" y="256" type="curve" smooth="yes"/>
      <point x="324" y="43" type="line" smooth="yes"/>
      <point x="324" y="-3"/>
      <point x="344" y="-28"/>
      <point x="390" y="-28" type="curve" smooth="yes"/>
      <point x="434" y="-28"/>
      <point x="445" y="-12"/>
      <point x="445" y="42" type="curve" smooth="yes"/>
      <point x="445" y="80" type="line"/>
      <point x="432" y="80" type="line"/>
      <point x="432" y="43" type="line" smooth="yes"/>
      <point x="432" y="5"/>
      <point x="428" y="-9"/>
      <point x="408" y="-9" type="curve" smooth="yes"/>
      <point x="395" y="-9"/>
      <point x="388" y="9"/>
      <point x="388" y="42" type="curve" smooth="yes"/>
      <point x="388" y="246" type="line" smooth="yes"/>
      <point x="388" y="320"/>
      <point x="334" y="368"/>
    </contour>
  </outline>
</glyph>
<glyph name="Fam_ligne" format="1">
  <advance width="3320"/>
  <outline>
    <contour>
      <point x="370" y="0" type="line"/>
      <point x="243" y="0" type="line"/>
      <point x="243" y="750" type="line"/>
      <point x="370" y="750" type="line"/>
    </contour>
    <contour>
      <point x="553" y="25" type="line"/>
      <point x="553" y="0" type="line"/>
      <point x="347" y="0" type="line"/>
      <point x="347" y="25" type="line"/>
    </contour>
    <contour>
      <point x="266" y="0" type="line"/>
      <point x="90" y="0" type="line"/>
      <point x="90" y="25" type="line"/>
      <point x="266" y="25" type="line"/>
    </contour>
    <contour>
      <point x="90" y="724" type="line"/>
      <point x="90" y="750" type="line"/>
      <point x="266" y="750" type="line"/>
      <point x="266" y="724" type="line"/>
    </contour>
    <contour>
      <point x="644" y="324" type="line"/>
      <point x="644" y="297" type="line"/>
      <point x="338" y="297" type="line"/>
      <point x="338" y="324" type="line"/>
    </contour>
    <contour>
      <point x="627" y="139" type="line"/>
      <point x="627" y="482" type="line"/>
      <point x="652" y="482" type="line"/>
      <point x="652" y="139" type="line"/>
    </contour>
    <contour>
      <point x="837" y="411" type="line"/>
      <point x="812" y="411" type="line"/>
      <point x="812" y="556" type="line" smooth="yes"/>
      <point x="812" y="690"/>
      <point x="779" y="723"/>
      <point x="635" y="723" type="curve" smooth="yes"/>
      <point x="355" y="723" type="line"/>
      <point x="355" y="750" type="line"/>
      <point x="837" y="750" type="line"/>
    </contour>
    <contour>
      <point x="2919" y="532" type="curve" smooth="yes"/>
      <point x="2919" y="0" type="line"/>
      <point x="2792" y="0" type="line"/>
      <point x="2792" y="15" type="line"/>
      <point x="2792" y="532" type="line" smooth="yes"/>
      <point x="2792" y="684"/>
      <point x="2779" y="734"/>
      <point x="2744" y="734" type="curve" smooth="yes"/>
      <point x="2703" y="734"/>
      <point x="2670" y="650"/>
      <point x="2670" y="452" type="curve"/>
      <point x="2642" y="524" type="line"/>
      <point x="2657" y="709"/>
      <point x="2693" y="770"/>
      <point x="2770" y="770" type="curve" smooth="yes"/>
      <point x="2866" y="770"/>
      <point x="2919" y="680"/>
    </contour>
    <contour>
      <point x="2670" y="0" type="line"/>
      <point x="2544" y="0" type="line"/>
      <point x="2544" y="750" type="line"/>
      <point x="2658" y="750" type="line"/>
      <point x="2658" y="587" type="line"/>
      <point x="2670" y="595" type="line"/>
    </contour>
    <contour>
      <point x="3111" y="0" type="line"/>
      <point x="2460" y="0" type="line"/>
      <point x="2460" y="25" type="line"/>
      <point x="3111" y="25" type="line"/>
    </contour>
    <contour>
      <point x="2460" y="725" type="line"/>
      <point x="2460" y="750" type="line"/>
      <point x="2566" y="750" type="line"/>
      <point x="2566" y="725" type="line"/>
    </contour>
    <contour>
      <point x="3168" y="532" type="curve" smooth="yes"/>
      <point x="3168" y="0" type="line"/>
      <point x="3041" y="0" type="line"/>
      <point x="3041" y="15" type="line"/>
      <point x="3041" y="532" type="line" smooth="yes"/>
      <point x="3041" y="685"/>
      <point x="3026" y="734"/>
      <point x="2988" y="734" type="curve" smooth="yes"/>
      <point x="2949" y="734"/>
      <point x="2919" y="649"/>
      <point x="2919" y="452" type="curve"/>
      <point x="2890" y="524" type="line"/>
      <point x="2906" y="710"/>
      <point x="2936" y="770"/>
      <point x="3013" y="770" type="curve" smooth="yes"/>
      <point x="3113" y="770"/>
      <point x="3168" y="680"/>
    </contour>
    <contour>
      <point x="3250" y="25" type="line"/>
      <point x="3250" y="0" type="line"/>
      <point x="3146" y="0" type="line"/>
      <point x="3146" y="25" type="line"/>
    </contour>
    <contour>
      <point x="1978" y="407" type="move"/>
      <point x="1837" y="348"/>
      <point x="1674" y="285"/>
      <point x="1674" y="156" type="curve" smooth="yes"/>
      <point x="1674" y="58"/>
      <point x="1740" y="-20"/>
      <point x="1902" y="-20" type="curve" smooth="yes"/>
      <point x="2052" y="-20"/>
      <point x="2197" y="127"/>
      <point x="2197" y="249" type="curve"/>
      <point x="2179" y="356" type="line"/>
      <point x="2179" y="266" type="line" smooth="yes"/>
      <point x="2179" y="160"/>
      <point x="2057" y="19"/>
      <point x="1932" y="19" type="curve" smooth="yes"/>
      <point x="1831" y="19"/>
      <point x="1814" y="92"/>
      <point x="1814" y="202" type="curve" smooth="yes"/>
      <point x="1814" y="301"/>
      <point x="1866" y="331"/>
      <point x="1988" y="382" type="curve" smooth="yes"/>
      <point x="2111" y="435"/>
      <point x="2178" y="459"/>
      <point x="2197" y="516" type="curve"/>
      <point x="2197" y="545" type="line"/>
      <point x="2179" y="545" type="line"/>
      <point x="2179" y="481"/>
      <point x="2082" y="451"/>
      <point x="1978" y="407" type="curve"/>
    </contour>
    <contour>
      <point x="1360" y="210" type="line" smooth="yes"/>
      <point x="1460" y="97"/>
      <point x="1498" y="62"/>
      <point x="1529" y="62" type="curve" smooth="yes"/>
      <point x="1560" y="62"/>
      <point x="1571" y="88"/>
      <point x="1571" y="127" type="curve" smooth="yes"/>
      <point x="1571" y="251" type="line"/>
      <point x="1598" y="251" type="line"/>
      <point x="1598" y="127" type="line" smooth="yes"/>
      <point x="1598" y="23"/>
      <point x="1561" y="-20"/>
      <point x="1482" y="-20" type="curve" smooth="yes"/>
      <point x="1424" y="-20"/>
      <point x="1367" y="13"/>
      <point x="1246" y="148" type="curve" smooth="yes"/>
      <point x="1014" y="407" type="line" smooth="yes"/>
      <point x="956" y="471"/>
      <point x="935" y="541"/>
      <point x="935" y="597" type="curve" smooth="yes"/>
      <point x="936" y="697"/>
      <point x="1016" y="770"/>
      <point x="1155" y="770" type="curve" smooth="yes"/>
      <point x="1285" y="770"/>
      <point x="1372" y="713"/>
      <point x="1372" y="605" type="curve" smooth="yes"/>
      <point x="1372" y="515"/>
      <point x="1308" y="441"/>
      <point x="1218" y="437" type="curve"/>
      <point x="1213" y="462" type="line"/>
      <point x="1298" y="468"/>
      <point x="1345" y="531"/>
      <point x="1345" y="605" type="curve" smooth="yes"/>
      <point x="1345" y="702"/>
      <point x="1267" y="743"/>
      <point x="1160" y="743" type="curve" smooth="yes"/>
      <point x="1091" y="743"/>
      <point x="1031" y="721"/>
      <point x="1031" y="651" type="curve" smooth="yes"/>
      <point x="1031" y="611"/>
      <point x="1052" y="555"/>
      <point x="1123" y="476" type="curve" smooth="yes"/>
    </contour>
    <contour>
      <point x="1213" y="462" type="line"/>
      <point x="1538" y="462" type="line"/>
      <point x="1538" y="437" type="line"/>
      <point x="1213" y="437" type="line"/>
    </contour>
    <contour>
      <point x="1335" y="198" type="curve" smooth="yes"/>
      <point x="1330" y="186" type="line"/>
      <point x="1309" y="206" type="line"/>
      <point x="1312" y="212" type="line" smooth="yes"/>
      <point x="1343" y="281"/>
      <point x="1348" y="368"/>
      <point x="1348" y="445" type="curve" smooth="yes"/>
      <point x="1348" y="452" type="line"/>
      <point x="1374" y="455" type="line"/>
      <point x="1374" y="445" type="line" smooth="yes"/>
      <point x="1374" y="369"/>
      <point x="1370" y="276"/>
    </contour>
    <contour>
      <point x="1044" y="386" type="curve" smooth="yes"/>
      <point x="1052" y="389" type="line"/>
      <point x="1063" y="366" type="line"/>
      <point x="1055" y="363" type="line" smooth="yes"/>
      <point x="973" y="332"/>
      <point x="950" y="296"/>
      <point x="950" y="176" type="curve" smooth="yes"/>
      <point x="950" y="59"/>
      <point x="990" y="16"/>
      <point x="1059" y="16" type="curve" smooth="yes"/>
      <point x="1149" y="16"/>
      <point x="1212" y="53"/>
      <point x="1278" y="141" type="curve" smooth="yes"/>
      <point x="1284" y="149" type="line"/>
      <point x="1301" y="134" type="line"/>
      <point x="1297" y="127" type="line" smooth="yes"/>
      <point x="1245" y="36"/>
      <point x="1143" y="-20"/>
      <point x="1019" y="-20" type="curve" smooth="yes"/>
      <point x="891" y="-20"/>
      <point x="810" y="74"/>
      <point x="810" y="155" type="curve" smooth="yes"/>
      <point x="810" y="272"/>
      <point x="930" y="343"/>
    </contour>
    <contour>
      <point x="1983" y="771" type="curve" smooth="yes"/>
      <point x="1821" y="771"/>
      <point x="1677" y="669"/>
      <point x="1677" y="539" type="curve" smooth="yes"/>
      <point x="1677" y="477"/>
      <point x="1704" y="426"/>
      <point x="1754" y="396" type="curve"/>
      <point x="1769" y="418" type="line"/>
      <point x="1732" y="444"/>
      <point x="1704" y="478"/>
      <point x="1704" y="539" type="curve" smooth="yes"/>
      <point x="1704" y="664"/>
      <point x="1848" y="744"/>
      <point x="1981" y="744" type="curve" smooth="yes"/>
      <point x="2129" y="744"/>
      <point x="2179" y="688"/>
      <point x="2179" y="547" type="curve" smooth="yes"/>
      <point x="2179" y="121" type="line" smooth="yes"/>
      <point x="2179" y="29"/>
      <point x="2220" y="-20"/>
      <point x="2312" y="-20" type="curve" smooth="yes"/>
      <point x="2400" y="-20"/>
      <point x="2421" y="12"/>
      <point x="2421" y="119" type="curve" smooth="yes"/>
      <point x="2421" y="195" type="line"/>
      <point x="2396" y="195" type="line"/>
      <point x="2396" y="121" type="line" smooth="yes"/>
      <point x="2396" y="45"/>
      <point x="2387" y="18"/>
      <point x="2347" y="18" type="curve" smooth="yes"/>
      <point x="2321" y="18"/>
      <point x="2307" y="53"/>
      <point x="2307" y="119" type="curve" smooth="yes"/>
      <point x="2307" y="527" type="line" smooth="yes"/>
      <point x="2307" y="674"/>
      <point x="2199" y="771"/>
    </contour>
  </outline>
</glyph>
<glyph name="I.acc" format="1">
  <advance width="530"/>
  <outline>
    <component base="I"/>
    <contour>
      <point x="265" y="750" type="move" name="top"/>
    </contour>
  </outline>
</glyph>
<glyph name="VTF" format="1">
  <advance width="1678"/>
  <outline>
    <contour>
      <point x="125" y="750" type="line"/>
      <point x="252" y="750" type="line"/>
      <point x="525" y="0" type="line"/>
      <point x="398" y="0" type="line"/>
    </contour>
    <contour>
      <point x="60" y="725" type="line"/>
      <point x="60" y="750" type="line"/>
      <point x="402" y="750" type="line"/>
      <point x="402" y="725" type="line"/>
    </contour>
    <contour>
      <point x="492" y="384" type="line"/>
      <point x="738" y="384" type="line"/>
      <point x="738" y="359" type="line"/>
      <point x="492" y="359" type="line"/>
    </contour>
    <contour>
      <point x="538" y="0" type="line"/>
      <point x="507" y="0" type="line" smooth="yes"/>
      <point x="637" y="359" type="line"/>
      <point x="668" y="359" type="line"/>
    </contour>
    <contour>
      <point x="503" y="769" type="curve"/>
      <point x="503" y="963" type="line"/>
      <point x="285" y="963" type="line"/>
      <point x="285" y="990" type="line"/>
      <point x="374" y="990" type="line"/>
      <point x="605" y="1143" type="line"/>
      <point x="630" y="1143" type="line"/>
      <point x="630" y="769" type="line" smooth="yes"/>
      <point x="630" y="557"/>
      <point x="668" y="480"/>
      <point x="794" y="480" type="curve" smooth="yes"/>
      <point x="867" y="480"/>
      <point x="954" y="551"/>
      <point x="954" y="732" type="curve"/>
      <point x="980" y="732" type="line"/>
      <point x="980" y="527"/>
      <point x="880" y="453"/>
      <point x="768" y="453" type="curve" smooth="yes"/>
      <point x="588" y="453"/>
      <point x="503" y="561"/>
    </contour>
    <contour>
      <point x="580" y="990" type="line"/>
      <point x="980" y="990" type="line"/>
      <point x="980" y="963" type="line"/>
      <point x="580" y="963" type="line"/>
    </contour>
    <contour>
      <point x="1411" y="214" type="line"/>
      <point x="1411" y="189" type="line"/>
      <point x="761" y="189" type="line"/>
      <point x="761" y="214" type="line"/>
    </contour>
    <contour>
      <point x="662" y="0" type="line"/>
      <point x="662" y="25" type="line"/>
      <point x="1311" y="25" type="line"/>
      <point x="1311" y="0" type="line"/>
    </contour>
    <contour>
      <point x="1464" y="483"/>
      <point x="1543.0" y="547.0315315315315"/>
      <point x="1543" y="644" type="curve" smooth="yes"/>
      <point x="1543" y="711"/>
      <point x="1488" y="743"/>
      <point x="1408" y="743" type="curve" smooth="yes"/>
      <point x="1280" y="743"/>
      <point x="1194" y="661"/>
      <point x="1103" y="412" type="curve" smooth="yes"/>
      <point x="952" y="0" type="line"/>
      <point x="824" y="0" type="line"/>
      <point x="975" y="413" type="line" smooth="yes"/>
      <point x="1063" y="654"/>
      <point x="1220" y="770"/>
      <point x="1416" y="770" type="curve" smooth="yes"/>
      <point x="1518" y="770"/>
      <point x="1573" y="728"/>
      <point x="1573" y="650" type="curve" smooth="yes"/>
      <point x="1573" y="545"/>
      <point x="1484" y="461"/>
      <point x="1335" y="411" type="curve" smooth="yes"/>
      <point x="1232" y="377"/>
      <point x="1077.8492733337448" y="334.123183334362"/>
      <point x="1027" y="207" type="curve"/>
      <point x="1018" y="225" type="line"/>
      <point x="1042" y="271" type="line"/>
      <point x="1111.8244012644282" y="366.2150926333112"/>
      <point x="1246" y="406"/>
      <point x="1328" y="435" type="curve" smooth="yes"/>
    </contour>
  </outline>
</glyph>
<glyph name="V.2" format="1">
  <advance width="790"/>
  <outline>
    <contour>
      <point x="728" y="739" type="line"/>
      <point x="425" y="31" type="line" smooth="yes"/>
      <point x="410" y="-4"/>
      <point x="385" y="-2"/>
      <point x="370" y="6" type="curve" smooth="yes"/>
      <point x="355" y="14"/>
      <point x="346" y="34"/>
      <point x="353" y="59" type="curve" smooth="yes"/>
      <point x="535" y="702" type="line" smooth="yes"/>
      <point x="538" y="714"/>
      <point x="536" y="720"/>
      <point x="528" y="722" type="curve" smooth="yes"/>
      <point x="520" y="724"/>
      <point x="511" y="719"/>
      <point x="506" y="708" type="curve" smooth="yes"/>
      <point x="309" y="238" type="line" smooth="yes"/>
      <point x="295" y="205"/>
      <point x="274" y="205"/>
      <point x="258" y="213" type="curve" smooth="yes"/>
      <point x="244" y="221"/>
      <point x="231" y="241"/>
      <point x="237" y="271" type="curve" smooth="yes"/>
      <point x="321" y="706" type="line" smooth="yes"/>
      <point x="322" y="712"/>
      <point x="322" y="720"/>
      <point x="317" y="721" type="curve" smooth="yes"/>
      <point x="309" y="723"/>
      <point x="305" y="719"/>
      <point x="301" y="710" type="curve" smooth="yes"/>
      <point x="210" y="508" type="line" smooth="yes"/>
      <point x="198" y="481"/>
      <point x="173" y="481"/>
      <point x="159" y="489" type="curve" smooth="yes"/>
      <point x="141" y="499"/>
      <point x="138" y="521"/>
      <point x="143" y="544" type="curve" smooth="yes"/>
      <point x="181" y="712" type="line" smooth="yes"/>
      <point x="182" y="718"/>
      <point x="182" y="722"/>
      <point x="178" y="723" type="curve" smooth="yes"/>
      <point x="173" y="724"/>
      <point x="170" y="722"/>
      <point x="166" y="715" type="curve" smooth="yes"/>
      <point x="119" y="639" type="line"/>
      <point x="95" y="654" type="line"/>
      <point x="139" y="725" type="line" smooth="yes"/>
      <point x="154" y="750"/>
      <point x="172" y="754"/>
      <point x="186" y="750" type="curve" smooth="yes"/>
      <point x="205" y="745"/>
      <point x="215" y="730"/>
      <point x="209" y="705" type="curve" smooth="yes"/>
      <point x="171" y="538" type="line" smooth="yes"/>
      <point x="169" y="528"/>
      <point x="166" y="519"/>
      <point x="172" y="515" type="curve" smooth="yes"/>
      <point x="177" y="512"/>
      <point x="181" y="515"/>
      <point x="183" y="520" type="curve" smooth="yes"/>
      <point x="275" y="722" type="line" smooth="yes"/>
      <point x="285" y="744"/>
      <point x="306" y="752"/>
      <point x="322" y="749" type="curve" smooth="yes"/>
      <point x="339" y="746"/>
      <point x="356" y="732"/>
      <point x="350" y="701" type="curve" smooth="yes"/>
      <point x="265" y="265" type="line" smooth="yes"/>
      <point x="263" y="253"/>
      <point x="263" y="244"/>
      <point x="269" y="240" type="curve" smooth="yes"/>
      <point x="275" y="236"/>
      <point x="280" y="241"/>
      <point x="283" y="249" type="curve" smooth="yes"/>
      <point x="480" y="719" type="line" smooth="yes"/>
      <point x="491" y="746"/>
      <point x="515" y="754"/>
      <point x="534" y="750" type="curve" smooth="yes"/>
      <point x="555" y="745"/>
      <point x="571" y="727"/>
      <point x="563" y="698" type="curve" smooth="yes"/>
      <point x="381" y="51" type="line" smooth="yes"/>
      <point x="378" y="42"/>
      <point x="377" y="35"/>
      <point x="383" y="32" type="curve" smooth="yes"/>
      <point x="389" y="29"/>
      <point x="395" y="32"/>
      <point x="399" y="42" type="curve" smooth="yes"/>
      <point x="703" y="750" type="line"/>
    </contour>
  </outline>
</glyph>
<glyph name="WWW" format="1">
  <advance width="1780"/>
  <outline>
    <contour>
      <point x="20" y="725" type="line"/>
      <point x="1760" y="725" type="line"/>
      <point x="1760" y="750" type="line"/>
      <point x="20" y="750" type="line"/>
    </contour>
    <contour>
      <point x="331" y="0" type="line"/>
      <point x="450" y="750" type="line"/>
      <point x="419" y="750" type="line"/>
      <point x="300" y="0" type="line"/>
    </contour>
    <contour>
      <point x="303" y="0" type="line"/>
      <point x="228" y="750" type="line"/>
      <point x="101" y="750" type="line"/>
      <point x="176" y="0" type="line"/>
    </contour>
    <contour>
      <point x="555" y="0" type="line"/>
      <point x="450" y="750" type="line"/>
      <point x="386" y="396" type="line"/>
      <point x="438" y="0" type="line"/>
    </contour>
    <contour>
      <point x="1332" y="0" type="line"/>
      <point x="1451" y="750" type="line"/>
      <point x="1420" y="750" type="line"/>
      <point x="1301" y="0" type="line"/>
    </contour>
    <contour>
      <point x="1584" y="0" type="line"/>
      <point x="1671" y="730" type="line"/>
      <point x="1640" y="730" type="line"/>
      <point x="1553" y="0" type="line"/>
    </contour>
    <contour>
      <point x="1556" y="0" type="line"/>
      <point x="1451" y="750" type="line"/>
      <point x="1387" y="396" type="line"/>
      <point x="1439" y="0" type="line"/>
    </contour>
    <contour>
      <point x="582" y="0" type="line"/>
      <point x="701" y="750" type="line"/>
      <point x="670" y="750" type="line"/>
      <point x="551" y="0" type="line"/>
    </contour>
    <contour>
      <point x="806" y="0" type="line"/>
      <point x="701" y="750" type="line"/>
      <point x="637" y="396" type="line"/>
      <point x="689" y="0" type="line"/>
    </contour>
    <contour>
      <point x="833" y="0" type="line"/>
      <point x="952" y="750" type="line"/>
      <point x="921" y="750" type="line"/>
      <point x="802" y="0" type="line"/>
    </contour>
    <contour>
      <point x="1057" y="0" type="line"/>
      <point x="952" y="750" type="line"/>
      <point x="888" y="396" type="line"/>
      <point x="940" y="0" type="line"/>
    </contour>
    <contour>
      <point x="1083" y="0" type="line"/>
      <point x="1202" y="750" type="line"/>
      <point x="1171" y="750" type="line"/>
      <point x="1052" y="0" type="line"/>
    </contour>
    <contour>
      <point x="1307" y="0" type="line"/>
      <point x="1202" y="750" type="line"/>
      <point x="1138" y="396" type="line"/>
      <point x="1190" y="0" type="line"/>
    </contour>
  </outline>
</glyph>
